<?xml version="1.0" encoding="utf-8"?>

<!DOCTYPE svg PUBLIC "-//W3C//DTD SVG 1.1//EN" "http://www.w3.org/Graphics/SVG/1.1/DTD/svg11.dtd">
<svg version="1.1" id="Layer_1" xmlns="http://www.w3.org/2000/svg" xmlns:xlink="http://www.w3.org/1999/xlink" x="0px" y="0px"
	 viewBox="-42.559 -46.4808 1257.118 1372.9617" enable-background="new -42.559 -46.4808 1257.118 1372.9617" xml:space="preserve"
	>
<g>
	<path fill="#EDDDC4" stroke="#EDDDC4" stroke-width="0.3" d="M622.68,1.72c-0.52,5.45-3.11,10.42-3.85,15.83
		c-1.16,5.77,0.01,11.72-1.16,17.48c-0.84,4.73-3.24,8.96-5.67,13.03c2.49,1.52,4.98,3.43,8.01,3.64c3.41-0.2,4.47-4.03,6.31-6.3
		c0.86-1.65,3.25-3.5,4.83-1.58c4.39,5.81,2.54,14.2,7.1,19.93c1.9,2.4,5.45,1.85,7.65,0.18c5.83-4.18,9.99-10.18,13.99-16.02
		c5.45-8.36,10.35-17.06,14.76-26c-4.71,12.85-7.33,26.29-10.31,39.61c7.98-4.81,15.79-10.15,21.99-17.19
		c6.01-6.86,11.78-13.96,18.32-20.35c-2.19,7.79-6.47,14.84-11.91,20.79c-7.2,8.05-16.44,14.21-22.65,23.16
		c3.36-2.54,6.02-5.84,9.09-8.7c3.05-3.01,7.21-5.79,11.71-4.88c-0.4,3.13-2.43,5.65-4.23,8.11c-4.44,5.92-9.39,11.45-13.74,17.43
		c-1.23,1.66-2.34,3.47-2.56,5.56c4.41,1.29,9.11,1.54,13.63,0.68c8.68-2.01,16.18-7.03,23.93-11.19c-1.91,3.06-5.35,4.6-7.69,7.27
		c-9.68,9.11-17.65,20.75-19.83,34.08c-2.41,13.04,1,26.5,7.25,37.99c8.21,15.11,20.53,27.6,34.0699,38.01
		c12.76,9.65,26.84,17.72,41.9901,22.95c8.1,2.69,16.7,4.8,25.29,3.77c4.3-0.48,8.41-2.46,11.17-5.84c0.3-0.28,0.9-0.83,1.2-1.11
		c3.3,3.62,4.99,8.27,7.44,12.44c3.11,4.49,9.2,5,14.21,5.09c8-0.13,17.1-1.81,23.98,3.39c6.52,5.09,5.31,14.5,10.28,20.6
		c2.39,3.13,5.87,5.25,9.54,6.58c8.2,2.93,16.82,4.56,25.48,5.49c-2.09,1.73-6.01,3.54-4.68,6.88c3.57,5.33,12.43,3.31,15.35,9.46
		c0.92,4.89-3.41,8.55-6.23,11.97c15.67,7.65,32.05,13.69,48.27,20.06c-9.4,1.47-18.67,3.62-27.99,5.51
		c2.75,0.95,5.53,1.95,8.45,2.31c9.79,1.15,19.6801,1.39,29.41,3.09c-3.46,1.42-7.26,0.09-10.86,0.4
		c-19.92,0.67-39.12,6.59-58.1,12.14c0.62-2.11,1.05-4.28,1.47-6.44c-4.34,0.82-8.68,1.59-13.07,2.04c-0.4,0.44-1.19,1.32-1.59,1.76
		c-5.2-2.86-11.7-3.53-16.84-0.14c-0.16-0.4-0.48-1.21-0.64-1.62c0.75-2.39,0.15-5.15,1.44-7.34c3.07-3.71,9.38-0.29,12.3-4.05
		c-4.38-0.47-8.84-1.11-13.16-0.02c-0.47-0.46-1.41-1.38-1.88-1.84c-3.71,0.43-7.4,0.98-11.08,1.56c-4.75,0.64-8.83,3.4-12.77,5.93
		c2.06,0.3,4.8-0.8,6.34,1.12c1.54,1.48,3,3.05,4.51,4.56c-1.2,2.5-2.46,4.96-3.79,7.38c6.71-0.27,13.02,2.21,18.69,5.58
		c-1.62,1.73-3.13,3.54-4.44,5.51c-4.49,1.8-8.85,3.9-13.29,5.81c-1.24-1.53-2.36-3.18-3.86-4.46c-3.7-2.1-8.92-0.8-11.94-4.13
		c-2.94-5.92-1.37-13.24-5.1-18.88c-2.73-4.1-5.25-8.98-10.18-10.76c-4.41-2.04-10.11-3.02-12.45-7.81
		c16.81-23.15,33.85-46.34,54.28-66.48c1.02-0.93,1.89-2.01,2.59-3.21c-8.07,6.49-15.04,14.28-22.12,21.82
		c-25.6201,27.9-47.32,59.04-70.83,88.67c0.75,0.81,1.55,1.58,2.4,2.3c3.45-3.27,6.53-6.9,9.52-10.59c0.95,3.02,2.15,6.09,4.43,8.39
		c2.65,2.65,6.23,4.48,8.07,7.89c1.57,3.1,1.7,7.41,5.59,8.63c-0.51,3.62,0.98,6.94,2.57,10.09c-1.2401,0.48-2.08,1.33-2.53,2.56
		c0.85-0.04,2.56-0.13,3.41-0.18c2,7.9,4.54,15.89,3.98,24.14c-5.28-12.83-9.82-25.97-15.63-38.58c-1.81-3.61-2.8-7.67-5.39-10.84
		c3.49,14.56,8.26,29.08,8.23,44.24c0.73,18.51-5.93,37.08-17.96,51.12c-7.44,9.57-17.13,17.04-26.74,24.3
		c-1.66,1.39-3.66,2.27-5.79,2.62c0.88-2.05,1.84-4.07,2.73-6.11c1.02-2.53,0.67-5.34,1.1-7.99c0.56-7.03,3.07-13.84,2.71-20.94
		c-0.43-6.53-3.37-12.49-5.81-18.45c-2.79-6.76-5.77-13.72-10.91-19.05c-3.35-2.77-7.71-0.92-11.43-0.22
		c-7.68,1.02-15.46,0.23-23.09-0.81c-5.89-1.01-11.71,1.6-16.33,5.06c-4.88,7.34-4.02,16.45-5.3,24.77
		c-0.66,6.61,0.9,13.21,2.68,19.53c-4.19,7.58,1.31,15.64,6.1,21.41c-2.54-1.07-5.21-1.8-7.95-2.05
		c8.44,10.08,17.46,20.26,29.18,26.6c-14.72,8.91-31.06,14.8-47.41,19.96c-15.27,4.39-30.96,7.58-46.86,8.38
		c-0.33,1.28-0.66,2.58-0.92,3.89c0.06-5.94,1.5-11.96,0.51-17.84c-0.55-3.22-3.71-4.46-6.63-4.51
		c-0.78,6.13-1.21,12.3-1.5099,18.47c-5.47,1.16-11.04,0.17-16.54-0.02c-4.14-0.14-8.26-0.59-12.28-1.56
		c4.97-8.55,10.96-16.5,15.71-25.16c-2.55,1.71-4.36,4.23-6.35,6.52c-5.15,6-9.9,12.33-14.43,18.82c-5.4-1.8-11.14-2.13-16.58-3.74
		c-13.61-3.13-26.68-8.12-39.65-13.19c1.55-4.51,3.66-9.1,3.04-13.99c-0.46-9.33-9.86-14.82-11.3-23.84
		c-0.94-7.57,2.25-15.96,9.19-19.7c6.4-3.42,10.98-10.01,11.52-17.29c-0.05-5.35-2.45-10.96,0.13-16.08
		c5.74-11.91,15.94-20.92,26.58-28.4c16-11.42,34.46-19.53,53.82-23.06c7.6-1.03,15.42-1.41,23.01-0.01
		c13.18,2.99,23.8,11.77,34.42,19.61c2.85,1.93,5.69,4.27,9.16,4.93c3.96-0.45,4.79-4.87,5.14-8.1c0.17-3.06,2.31-5.68,5.23-6.56
		c11.58-4.1,23.9-8.45,36.33-5.98c9.62,2.49,17.63,8.92,27.2,11.54c1.54-6.58,1.75-13.37,2.72-20.04c0.55-2.71-3.46-4.09-2.45-6.83
		c2.19-7.33,9.8-11.32,12.5099-18.35c1.84-5.29-2.34-9.76-4.12-14.37c-2.82-8.68-4.14-17.75-5.41-26.76
		c1.31,0.17,2.63,0.33,3.96,0.49c5.29-4.9,5.1-12.54,5.16-19.16c0.68-9.62-3.67-20.31-12.85-24.46c-7.04-3.41-14.09-8.87-22.35-7.69
		c-1.92,0.35-3.81,0.88-5.57,1.72c-1.74,3.36,0.46,7.74,3.61,9.5c3.56,0.92,7.15-1.66,10.71-0.68c7.93,4.07,14.49,11.09,17.41,19.57
		c1.44,3.91,0.2599,8.13-1.23,11.83c-1.63-6.33-0.74-13.46-4.57-19.11c-2.37-4.1-7.16-5.51-11.43-6.65
		c-7.02-2.03-14.56-3.8-20.17-8.74c-3.48-4.7-0.99-10.92-1.97-16.26c-0.6201-7.42-6.65-12.4-11.56-17.28
		c-1.77-1.74-4.96-3.83-7.09-1.46c-2.07,2.83-1.9,6.56-2.66,9.84c-2.2-2.77-1.98-6.52-2.94-9.76c-1.1-5.69-6.16-9.15-8.96-13.91
		c-3.56-5.98-8.94-11.18-15.72-13.23c-1.47,0.04-2.93,0.23-4.39,0.22c6.09-9.58,10.53-20.05,15.82-30.06
		c2.31-4.67,4.97-9.19,6.99-14c0.1-2.21-0.09-4.43,0.43-6.6c-5.85,2.88-10.1,7.89-14.48,12.54c-3.41,3.79-5.32,8.58-7.61,13.06
		c-0.9-0.73-2.05-1.33-2.33-2.56c-2.4-5.79-3.38-12.4-7.19-17.47c0,6.22-2.25,12.1-3.61,18.09c-1.38-2.76-2.65-5.58-3.59-8.53
		c-1.04-3.08,0.41-6.42-0.4-9.5c-3.2-4.28-2.34-9.97-3.62-14.92c-1.71,0.93-2.56,2.71-2.92,4.55c-1.48,6.56-2.92,13.18-2.84,19.94
		c-1.28,7.3-2.59,14.73-5.71,21.51c-3.9901,9.72-8.63,19.29-10.68,29.66c-0.45,5.15-0.11,10.34-0.17,15.51
		c2.61,0.58,4.1-1.74,5.63-3.39c2.52-2.61,3.26-6.53,6.27-8.72c3.19-2.3,5.79-5.24,8.49-8.06c-0.37,4.77-0.96,9.53-1.55,14.29
		c-4.77,0.11-7.5,4.48-9.56,8.19c-1.65,2.66-3.25,6.36-6.88,6.5c-3.19-0.55-4.15-3.83-4.87-6.5c-1.07-5.32-6.34-8.56-11.26-9.74
		c-5.09-1.25-9.99,1.79-13,5.68c-3.5,4.14-5.2,9.37-7.95,13.97c-5.07-3.13-10.87-6.39-17.05-5.14c-5.53,1.11-9.19,6.07-11.16,11.03
		c-1.52,4.24-2.3799,8.72-2.53,13.23c-0.59,17.02,0.48,34.04,0.06,51.06c-0.21,8.66-1.02,17.66-5.02,25.49
		c0.18-18.16,1.06-36.31,1.09-54.46c-0.97-11.06-1.12-22.3-4.1-33.07c-3.12-11.84-5.7599-24.17-12.52-34.58
		c-1.89-3.49-6.11-4.17-9.38-5.77c-5.35-1.92-10.09-5.06-14.89-8.01c-20.67-11.94-42.92-20.81-65.34-28.85
		c-9.33-3.44-18.86-6.47-27.69-11.1c-7.89-4.05-14.99-9.64-23.45-12.53c-18.9-6.42-38.32-11.34-56.88-18.74
		c0.46-9.32,1.2-19.18-2.32-28.03c-4.21-9.34-13.77-14.85-23.16-17.84c-2.76-0.79-5.67-1.3-8.01-3.07
		c-4.08-8.16-9.29-15.77-12.73-24.27c-0.85-2.43-2.4-4.85-2.02-7.51c2.27-0.64,3.84,1.87,5.55,2.99
		c7.73,7.72,16.87,13.73,25.61,20.2c4.19,2.85,8.1,6.34,12.86,8.2c-2.53-3.4-5.67-6.29-8.19-9.69c-5.72-7.32-9.21-16-13.16-24.33
		c6.61,2.7,11.03,8.74,17.34,11.94c-3.12-7.53-6.54-14.94-9.36-22.58c-1.03-2.92-2.08-5.9-2.09-9.03
		c5.37,1.16,7.43,7.33,11.78,10.23c-0.29-7.08-3.84-13.62-3.99-20.74c-0.14-1.52,0.93-3.81,2.83-3.1c3.27,0.83,4.65,4.27,6.67,6.63
		c16.84,22.39,32.85,45.49,51.52,66.42c3.48,4.24,8.26,6.95,12.48,10.33c3.34-13.41-1.67-27.42,1.15-40.93
		c0.48-1.83,0.93-3.8,2.33-5.17c0.96,6.16,0.69,12.52,2.32,18.57c0.21,1.41,1.49,2.11,2.47,2.95c3.58-1.83,3.75-6.17,5.44-9.36
		c0.63-1.18,2.26-2.42,3.53-1.28c4.15,3.61,4.85,9.53,5.74,14.63c4.56-5.68,6.89-15.33,15.34-16.16c4.03,1.85,3.61,7.16,4.76,10.81
		c3.98-3.19,8.46-5.81,11.95-9.57c2.8-2.94,4-6.92,5.35-10.65c2.32,5.64,8.37,11.46,14.9,8.85c6.81-3.34,8.9-11.46,10.73-18.2
		c1.83,2.85,3.62,6.54,7.29,7.25c3.45-0.13,5.49-3.37,7.33-5.85c1.18,1.89,2.04,5.28,4.75,5.18c4.35-1.86,6.21-6.65,8.58-10.42
		c2.06,1.9,3.11,4.6,4.72,6.85c3.58,6.26,8.45,12.45,15.73,14.43c0.8199-5.37,1.52-10.76,2.59-16.08
		c3.29,5.86,9.16,11.68,16.46,10.61c7.88-1.28,12.88-8.73,15.46-15.72c-0.12,3.02-0.64,6.08-0.12,9.08
		c0.81,2.97,4.38,2.09,6.29,0.82c8.48-5.18,15.03-12.8,22.21-19.54c-1.43,4.78-4.32,9.14-4.7,14.19c6.46-0.59,11.15-7.16,17.91-6.73
		c3.51,0.94,5.33,4.38,7.02,7.28C608.65,24.74,616.22,13.56,622.68,1.72 M595.29,457.33c-2.13,1.72,1.02,4.48,2.67,2.64
		C599.54,458.39,596.83,455.83,595.29,457.33 M577.38,460.39c-1.68,1.57,1.23,4.14,2.64,2.44
		C581.95,461.33,579,458.62,577.38,460.39 M617.42,470.41c-2.36,1.43,0.82,4.36,2.36,2.59
		C621.77,471.77,618.84,468.91,617.42,470.41 M601.42,472.58c-2.43,0.88-0.04,4.27,1.8,2.82
		C604.96,474.33,603.17,471.42,601.42,472.58 M585.29,474.24c-1.94,0.3-2.57,3.47-0.45,4.02c1.02,0.79,2.17,0.11,3.14-0.41
		C589.56,476.04,587.29,473.53,585.29,474.24 M600.24,482.35c-1.79,1.69,1.03,4.01,2.68,2.6
		C604.79,483.24,601.9,480.8,600.24,482.35 M569.39,483.5c-1.12,1.55,1.29,3.69,2.71,2.28C574.59,484.39,570.81,480.94,569.39,483.5
		 M591.32,494.37c-2.56,0.75-0.06,4.46,1.74,2.78C594.85,496.18,593.05,493.37,591.32,494.37 M615.34,494.44
		c-2.33,1.56,0.98,4.48,2.5,2.53C619.65,495.63,616.8,493.1,615.34,494.44z"/>
	<path fill="#AA9578" stroke="#AA9578" stroke-width="0.3" d="M798.6,28.5c11.2-5.63,22.72-11.38,35.31-12.97
		c10.64-1.47,21.61,2.93,29.03,10.52c8.61,9.18,11.42,22.25,11.45,34.49c-3.54-7.78-3.5-16.62-6.27-24.64
		c-2.84-6.37-9.35-10.31-15.76-12.34c-10.79-2.82-22.16,0.02-31.91,4.88c-16.21,8.22-29.41,21.31-40.31,35.66
		c-10.48,14.35-18.63,30.65-22.4,48.07c2.36-2.24,5.57-4.67,8.92-2.71c9.7401,5.13,13.65,19.79,6.31,28.49
		c-4.91,5.83-9.22,13.11-8.14,21.04c1.05,8.89,8.18,15.22,14.76,20.49c4.83,3.51,7.8199,9.5,7.2,15.51
		c-0.05,4.62-1.93,9.93,1.28,13.93c2.12,2.52,5.1,5.4,8.69,4.68c1.13-0.11,2.27-0.26,3.41-0.43c-2.76,3.38-6.87,5.36-11.17,5.84
		c-8.59,1.03-17.19-1.08-25.29-3.77c-15.15-5.23-29.23-13.3-41.9901-22.95c-13.54-10.41-25.86-22.9-34.0699-38.01
		c-6.25-11.49-9.66-24.95-7.25-37.99c2.18-13.33,10.15-24.97,19.83-34.08c2.34-2.67,5.78-4.21,7.69-7.27
		c8.21-4.89,16.99-8.81,25.97-12C755.89,52.28,776.97,39.86,798.6,28.5z"/>
	<path fill="#8A7757" stroke="#8A7757" stroke-width="0.3" d="M820.45,28.44c9.75-4.86,21.12-7.7,31.91-4.88
		c6.41,2.03,12.92,5.97,15.76,12.34c2.77,8.02,2.73,16.86,6.27,24.64c0.93,7.6-1.02,15.03-2.22,22.47c-0.1-0.77-0.29-2.33-0.39-3.11
		c-3.1201,11.06-5.7,22.29-9.6201,33.11c-0.7599,1.97-0.96,4.09-1.2,6.17c-4.11,10.67-9.48,20.81-15.06,30.78
		c-8.4301,14.85-19.41,28.01-28.55,42.4c-4.65,7.09-10.12,13.59-15.98,19.7c-0.3,0.28-0.9,0.83-1.2,1.11
		c-1.14,0.17-2.28,0.32-3.41,0.43c-3.59,0.72-6.57-2.16-8.69-4.68c-3.21-4-1.33-9.31-1.28-13.93c0.62-6.01-2.37-12-7.2-15.51
		c-6.58-5.27-13.71-11.6-14.76-20.49c-1.08-7.93,3.23-15.21,8.14-21.04c7.34-8.7,3.4301-23.36-6.31-28.49
		c-3.35-1.96-6.56,0.47-8.92,2.71c3.77-17.42,11.92-33.72,22.4-48.07C791.04,49.75,804.24,36.66,820.45,28.44z"/>
	<path fill="#8A7A5E" stroke="#8A7A5E" stroke-width="0.3" d="M168.95,41.99c16.92-3.96,34.92-2.31,51.02,4.12
		c19.73,8.36,36.29,22.62,50.32,38.57c17.24,19.42,31.19,41.45,44.26,63.8c0.98,2.03,2.04,4.03,2.85,6.14
		c5.15,14.69,10,29.49,14.66,44.35c1.49,5.17,3.25,10.29,4.19,15.61c-5.6-4.75-11.17-9.59-17.64-13.14
		c-13.65-7.66-27.39-15.3-41.98-21.06c-4.32-1.72-7.75-5.02-12.04-6.8c3.98,8.18,9.7,15.42,15.51,22.38
		c5.71,6.57,12.04,12.6,17.38,19.49c5.22,6.56,8.74,14.31,14.35,20.59c1.57,2.28,4.24,4.16,4.64,7.02l-0.63,0.62
		c-8.7-8.97-19.86-15.3-31.78-18.94c-13.7-4.19-28.13-6.04-42.44-5.71c4.47,4.93,10.19,8.58,16.38,10.96
		c5.19,2.24,10.99,5.34,12.86,11.08c1.33,3.72,2.66,7.44,3.93,11.18c-7.11-2.02-13.63-6.03-21.08-6.85
		c-8.21-0.88-16.31,1.39-24.26,3.15c3.78,1.13,7.75,1.16,11.63,1.72c10.64,1.45,21.26,3.54,31.34,7.31
		c7.15,2.8,14.36,6.77,18.56,13.46c3.3,4.62,5.18,10.04,8.2,14.83c2.21,3.65,6.38,5.11,9.95,7.04c-12.17-2.3-24.23-5.36-36.03-9.11
		c-8.77-2.53-15.57-9.08-24.06-12.2c4.35,8.42,10.93,15.35,16.92,22.6c-2.78-1.54-5.25-3.55-7.97-5.17
		c-8.63-5.2-18.2-8.7-27.99-10.99c-2.36-0.51-4.65-1.34-6.72-2.6c-15.44-10.46-29.4-22.95-42.54-36.14
		c-14.66-14.79-28.14-30.83-39.46-48.33c-12.65-19.84-22.82-41.77-26.14-65.23c-2.53-18.35-0.41-38.02,9.61-53.95
		C134.32,56.06,151.12,45.68,168.95,41.99z"/>
	<path fill="#D0BEA6" stroke="#D0BEA6" stroke-width="0.3" d="M219.97,46.11c24.07,6.07,47.64,14.91,68.61,28.34
		c2.34,1.77,5.25,2.28,8.01,3.07c9.39,2.99,18.95,8.5,23.16,17.84c3.52,8.85,2.78,18.71,2.32,28.03
		c-7.8-2.52-12.95-9.09-18.87-14.31c0.48,4.68,1.07,9.43,2.94,13.79c2.9,6.76,4.56,13.97,7.44,20.74c0.7,1.53,1,3.19,0.97,4.87
		c-13.07-22.35-27.02-44.38-44.26-63.8C256.26,68.73,239.7,54.47,219.97,46.11z"/>
	<path fill="#B7987E" stroke="#B7987E" stroke-width="0.3" d="M862.16,113.01c3.92-10.82,6.5-22.05,9.6201-33.11
		c0.1,0.78,0.29,2.34,0.39,3.11c-2.66,12.36-6.3,24.52-11.21,36.17C861.2,117.1,861.4,114.98,862.16,113.01z"/>
	<path fill="#C0AB8C" stroke="#C0AB8C" stroke-width="0.3" d="M303.2,109.08c5.92,5.22,11.07,11.79,18.87,14.31
		c18.56,7.4,37.98,12.32,56.88,18.74c8.46,2.89,15.56,8.48,23.45,12.53c8.83,4.63,18.36,7.66,27.69,11.1
		c22.42,8.04,44.67,16.91,65.34,28.85c4.8,2.95,9.54,6.09,14.89,8.01c3.27,1.6,7.49,2.28,9.38,5.77
		c6.76,10.41,9.4,22.74,12.52,34.58c2.98,10.77,3.13,22.01,4.1,33.07c-0.03,18.15-0.91,36.3-1.09,54.46
		c-4.04,9.43-13.29,15.02-21.92,19.72c-8.56,4.7-17.85,7.94-26.27,12.88c-6.77,4.06-11.03,10.88-16.47,16.38
		c-1.42,1.61-3.23,3.24-3.36,5.53c-0.36,5.21,1.65,10.99-1.51,15.68c-4.55,7.05-12.63,10.39-19.66,14.38
		c-3.47,1.76-6.5,4.32-10.06,5.89c-5.02,0.61-10.09,0.24-15.13,0.29c-6.73-0.71-13.52-2.21-19.45-5.57
		c-9.01-5.16-18.11-10.2-27.49-14.65c-12.28-5.91-25.14-11.31-35.34-20.58c-4.71-4.22-8.53-9.6-10.12-15.78
		c-1.42-4.83-1.64-10.2-4.61-14.44c-1.32-2.45-4.44-1.27-6.65-1.41c-4.98-4.05-7.97-10.38-14.09-13.02c-3.13-1.88-7.6-1.89-9.7-5.18
		c-1.2-3.82,1.41-7.72,0.66-11.57c-0.82-2.1-2.82-3.39-4.62-4.57c-5.75-3.4-12.29-5.01-18.54-7.21
		c-19.45-7.35-37.88-17.88-53.14-32.07c1.84,0.35,3.66,0.81,5.49,1.24l0.03-1c2.07,1.26,4.36,2.09,6.72,2.6
		c9.79,2.29,19.36,5.79,27.99,10.99c2.72,1.62,5.19,3.63,7.97,5.17c-5.99-7.25-12.57-14.18-16.92-22.6
		c8.49,3.12,15.29,9.67,24.06,12.2c11.8,3.75,23.86,6.81,36.03,9.11c-3.57-1.93-7.74-3.39-9.95-7.04c-3.02-4.79-4.9-10.21-8.2-14.83
		c-4.2-6.69-11.41-10.66-18.56-13.46c-10.08-3.77-20.7-5.86-31.34-7.31c-3.88-0.56-7.85-0.59-11.63-1.72
		c7.95-1.76,16.05-4.03,24.26-3.15c7.45,0.82,13.97,4.83,21.08,6.85c-1.27-3.74-2.6-7.46-3.93-11.18
		c-1.87-5.74-7.67-8.84-12.86-11.08c-6.19-2.38-11.91-6.03-16.38-10.96c14.31-0.33,28.74,1.52,42.44,5.71
		c11.92,3.64,23.08,9.97,31.78,18.94l0.63-0.62c-0.4-2.86-3.07-4.74-4.64-7.02c-5.61-6.28-9.13-14.03-14.35-20.59
		c-5.34-6.89-11.67-12.92-17.38-19.49c-5.81-6.96-11.53-14.2-15.51-22.38c4.29,1.78,7.72,5.08,12.04,6.8
		c14.59,5.76,28.33,13.4,41.98,21.06c6.47,3.55,12.04,8.39,17.64,13.14c-0.94-5.32-2.7-10.44-4.19-15.61
		c-4.66-14.86-9.51-29.66-14.66-44.35c-0.81-2.11-1.87-4.11-2.85-6.14c0.03-1.68-0.27-3.34-0.97-4.87
		c-2.88-6.77-4.54-13.98-7.44-20.74C304.27,118.51,303.68,113.76,303.2,109.08 M493.08,261.15c-8.13,0.87-16.63,0.28-24.3,3.56
		c-6.32,2.62-10.86,8.12-14.11,13.95c-3.13,5.67-6.28,11.68-6.52,18.29c-1.44,10.27-2.98,21.38,1.66,31.09
		c1.48,3.66,4.7,6.16,6.67,9.51c1.53,2.56,3.4,5.37,6.51,6.08c10.12,2.25,20.75,2.91,30.97,0.95c11.13-2.09,21.2-8.49,28.3-17.25
		c5.5-6.92,11.33-14.88,10.26-24.24c-1.48-11.39-4.38-23.48-12.69-31.93c-4.88-5.21-11.85-7.45-18.38-9.78
		C498.73,260.52,495.85,260.97,493.08,261.15z"/>
	<path fill="#BC9F74" stroke="#BC9F74" stroke-width="0.3" d="M625.01,135.99c0.36-1.84,1.21-3.62,2.92-4.55
		c1.28,4.95,0.42,10.64,3.62,14.92c0.81,3.08-0.64,6.42,0.4,9.5c0.94,2.95,2.21,5.77,3.59,8.53c1.36-5.99,3.61-11.87,3.61-18.09
		c3.81,5.07,4.79,11.68,7.19,17.47c0.28,1.23,1.43,1.83,2.33,2.56c2.29-4.48,4.2-9.27,7.61-13.06
		c4.3799-4.65,8.6299-9.66,14.48-12.54c-0.52,2.17-0.33,4.39-0.43,6.6c-2.02,4.81-4.68,9.33-6.99,14
		c-5.29,10.01-9.73,20.48-15.82,30.06c-0.4,0.65-0.77,1.32-1.13,1.99c-3.62,5.54-5.12,12.09-5.94,18.57
		c-0.39,2.99-0.16,6.09-1.13,8.99c-1.84-2.56-3.53-5.22-5.47-7.71c-0.69,1.17-1.13,2.43-1.33,3.8c-2.52,4.48-5.16,8.93-8.21,13.08
		c0.49-4.46-0.35-8.93,0.14-13.38c0.59-4.76,1.18-9.52,1.55-14.29c-2.7,2.82-5.3,5.76-8.49,8.06c-3.01,2.19-3.75,6.11-6.27,8.72
		c-1.53,1.65-3.02,3.97-5.63,3.39c0.06-5.17-0.28-10.36,0.17-15.51c2.05-10.37,6.6899-19.94,10.68-29.66
		c3.12-6.78,4.43-14.21,5.71-21.51C622.09,149.17,623.53,142.55,625.01,135.99z"/>
	<path fill="#EDDDC4" stroke="#EDDDC4" stroke-width="0.3" d="M107.14,174.2c4.31,0.55,8.85-1.41,12.92,0.71
		c6.91,3.35,12.04,9.27,17.76,14.23c0.92,0.99,2.21,1.42,3.46,1.83c11.32,17.5,24.8,33.54,39.46,48.33
		c13.14,13.19,27.1,25.68,42.54,36.14l-0.03,1c-1.83-0.43-3.65-0.89-5.49-1.24c15.26,14.19,33.69,24.72,53.14,32.07
		c6.25,2.2,12.79,3.81,18.54,7.21c1.8,1.18,3.8,2.47,4.62,4.57c0.75,3.85-1.86,7.75-0.66,11.57c2.1,3.29,6.57,3.3,9.7,5.18
		c6.12,2.64,9.11,8.97,14.09,13.02c2.21,0.14,5.33-1.04,6.65,1.41c2.97,4.24,3.19,9.61,4.61,14.44c1.59,6.18,5.41,11.56,10.12,15.78
		c10.2,9.27,23.06,14.67,35.34,20.58c9.38,4.45,18.48,9.49,27.49,14.65c5.93,3.36,12.72,4.86,19.45,5.57
		c4.72,0.76,9.51,0.1,14.26,0.63c-10.52,7.67-20.16,17.47-24.12,30.19c-13.45-9.81-26.34-20.36-39.77-30.18
		c-16.94-12.62-34.42-25.02-54.14-32.92c-8.32-3.36-17.17-5.57-26.16-5.77c-2.88-0.2-5.47,2.06-5.8,4.91
		c-1.05,7.52,1.93,15.06,0.52,22.58c-0.47,2.21-2.21,4.21-4.52,4.52c-4.03,0.93-8.84,0.8-11.82,4.14c-3.18,4.37,0.92,9.71-0.51,14.4
		c-2.08,2.67-6.05,2.64-8.83,4.38c2.62,4.35,7.89,5.51,11.97,8.01c4.68,2.76,10.19,4.89,13.28,9.62c1.26,1.77,0.2,3.93-1.32,5.12
		c-7.67,6.67-18.8,8.69-25.16,16.96c-1.72,1.91,0.31,4.4,2.23,5.17c9,4.65,19.48,6.21,27.78,12.27c0.86,2.01-1.74,2.64-3.1,3.32
		c-10.23,3.56-20.89,5.67-31.24,8.86c-3.71,1.15-7.68,2.02-10.72,4.6c3.71,3.1,8.78,2.93,13.34,3.1c9.31,0.1,18.65-0.04,27.91,1.14
		c2.14,0.3,4.15,1.18,6.14,2.01c-0.97,1.65-3.1,1.69-4.75,2.15c-7.13,1.17-14.22,2.58-21.37,3.66c-2.41,0.45-5.1,0.67-6.95,2.47
		c8.79,4.54,18.51,6.62,27.93,9.42c8.34,2.44,17.08,4.06,24.74,8.35c0.04,0.37,0.12,1.09,0.17,1.46
		c-8.03,2.34-16.61,1.82-24.89,1.97c-10.31-0.15-20.64,0.33-30.93-0.5c-12.67-0.31-25.35-0.32-38.03-0.68
		c-9.63-0.66-19.29-0.39-28.94-0.51c-8.83,0.03-17.79-0.33-26.47,1.4901c-0.06,0.29-0.17,0.89-0.23,1.19
		c11.35,10.08,24.89,17.48,38.99,23c14.01,5.77,28.59,9.97,43.26,13.71c2.89,0.8,6,1.24,8.47,3.06
		c-44.84,0.54-89.92-0.27-134.44,6.03c-7.04,1.38-14.45,2.52-20.64,6.34c-2.62,1.2-2.92,5.06-0.78,6.87
		c4.12,3.97,9.62,6.01,14.87,8.01c14.67,5.15,29.85,8.71,45.05,11.91c41.55,8.42,83.66,13.81,125.83,17.97
		c37.26,3.46,74.63,6.04,112.06,6.63c27.33,1.32,54.71,0.23,82.04-0.65c4.07-0.34,8.18-0.75,12.26-0.1
		c-0.52,0.38-1.55,1.14-2.06,1.52c0.9,0.01,2.71,0.03,3.62,0.04c-6.63,6.64-13.59,12.92-20.57,19.19
		c-9.82,8.67-20.16,16.81-28.96,26.58c0.14,0.85,0.41,2.57,0.55,3.43c-9.8-6.43-16.42-17.01-27.2-22.01
		c-8.13-3.33-15.28,3.61-21.11,8.33c-13.19,12.91-22.95,29.38-27.79,47.21c-4.15,14.65-4.54,30.02-3.84,45.14
		c-0.11,6.29,3.6,11.69,5.75,17.37c10.86,1.66,21.02,5.99,31.39,9.38c10.73,1.18,21.63,0.59,32.33-0.75
		c-0.04,0.74-0.13,2.24-0.17,2.99c-0.79,4.65-0.99,9.36-1.43,14.05c-0.68,5.83-5.3,10.27-6.2,16.03c-0.22,3.33,0.61,6.61,0.57,9.94
		c0.31,2.78-2.36,4.43-3.82,6.43c-4.59,5.6-9.75,11.39-11.03,18.78c-2.5,12.44-1.17,25.28-3.17,37.78
		c-0.33,3.11-2.43,5.54-3.85,8.21c9.23-8.01,17.18-17.4,25.84-26.01c8.18-8.75,14.1-19.26,21.26-28.79
		c1.3-1.4901,3.98-1.26,4.63-3.37c1.43-2.41,0.51-5.51,2.06-7.84c3.19-5.2,7.29-9.73,10.97-14.56c3.61,3.06,6.66,7.36,6.82,12.25
		c0.38,5.01,0.05,10.12,1.33,15.03c1.49-8.93,2.46-17.94,3.21-26.97c0.64,8.99,3.58,17.68,8.5,25.23c0.99-1.27,2.23-2.43,2.52-4.07
		c2-7.69,3.56-15.48,5.24-23.23c4.62,4.55,6.91,10.88,9.84,16.57c1.74,4.08,4.33,7.71,6.45,11.58c0.64,3.56-0.97,7.05-0.86,10.63
		c1.64-2.16,1.76-4.94,2.22-7.4901c1.68-12.68,0.72-25.67,3.79-38.16c1.72-6.18,2.78-12.56,2.9-18.98
		c0.24-6.74,0.11-13.77,2.96-20.03c2.65-5.84,7.51-10.17,11.64-14.92c8.3199,3.1,17.37,1.99,26.02,1.53
		c9.97-4.09,19.57-9.06,29.42-13.45c4.8199-1.95,10.27-2.36,14.64-5.38c2.63-1.61,3.76-4.67,4.6-7.47
		c2.35-8.57,2.48-17.52,2.77-26.33c0.14-10.6-0.46-21.18-1.14-31.75c1.02,1.59,2.05,3.1801,3.13,4.75
		c-1.01-3.67-3.07-6.9399-3.98-10.64c-0.78-6.52-4.19-12.3-5.78-18.6c-1.22-4.44-1.77-9.65-5.87-12.51
		c-1.5-2.04-2.13-4.52-2.81-6.91c-1.5-5.4-2.92-10.83-3.78-16.37c4.69-1.7,9.44-3.3,14.39-4.08c0.82,7.06,1.57,14.13,2.3,21.2
		c0.9,10.29,4.19,20.17,7.62,29.85c1.07,2.94,2,6.01,3.95,8.52c-2.12-10.73-5.64-21.22-7.04-32.12
		c19.68,20.4,35.55,44.87,44.45,71.88c1.11-0.61,0.9901-2.04,1.3-3.08c0.86-4.96,1.92-9.88,2.91-14.81
		c5.74,3.73,11.13,8.21,15.05,13.89c4.26,6.45,5.22,14.5,9.23,21.03c-0.76-5.47,2.25-10.39,5.74-14.31
		c5.67,4.52,13.51,5.69,20.18,2.73c6.93-3,15.15-3.57,21.77,0.56c6.45,2.62,10.7,10.29,18.3101,9.67c6.8-1.59,11.89-7.03,18.4-9.27
		c8.79-1.48,16.98,3.56,25.67,3.6801c2.35-0.7401,3.31-3.63,5.01-5.33c17.95-4.58,34.89,7.6,52.78,4.94
		c8.76-4.16,15.68-11.45,24.47-15.6c5.61-2.98,12.52,1.86,17.84-2.11c5.24-3.83,2.01-11.98,7.08-15.93c2.81-1.9,6.48-1.39,9.68-1.11
		c8.52,1.5,16.6,4.78,25.03,6.67c4.75,1.06,9.47,2.2,14.08,3.79c-8.67-6.63-17.45-13.16-26.25-19.62
		c6.98,1.69,13.47,5.11,20.59,6.37c4.45,0.91,9.03,0.75,13.56,0.66c8.34-0.33,16.5601,1.46,24.86,1.99
		c-3.05-6.69-6.49-13.19-11.15-18.91c3.98,0.58,8.26,1.59,12.06-0.31c4.94-2.66,10.81-4.25,14.12-9.15
		c-0.04-5.45-5.79-9.34-5.46-14.92c-0.13-1.23-0.28-2.44-0.46-3.64c2.15-1.53,4.86-1.82,7.13-3.09c3-3.81,6.71-9.03,4.15-14
		c-3.7-5.95-10.1299-9.42-14.58-14.72c3.94-2.96,7.6-7.12,7.72-12.32c0.63-5.73-2.15-10.92-4.27-16.02c-1.71-3.33,3.53-5.58,1.93-9
		c-2.65-8.48-2.86-17.77-7.42-25.58c-1.16-2.1-2.48-4.11-3.74-6.13c2.41-2.14,5.82-3.84,6.53-7.26c0.04-3.8-3.89-5.6-6.33-7.8
		c9.83-0.6,19.46-2.92,29.29-3.51c-9-5.89-20.61-4.06-30.05-8.8c-4.38-2.58-6.26-7.61-8.69-11.8c5.34,2.52,10.36,6.04,16.32,6.94
		c2.3,0.24,4.76,1.21,7.02,0.2c-6.58-3.76-14.57-5.64-19.92-11.25c1.02-1.06,2.31-1.61,3.8799-1.66
		c-6.39-3.52-10.1-10.1-15.73-14.52c-2.14-1.81-4.8-3.23-6.11-5.8c-1.25-4.6,2.78-8.9,1.29-13.51c-0.62-1.66-1.35-3.99-3.39-4.24
		c-1.47-0.48-3.92-0.08-4.25-2.1c-1.24-4.02-2.3-8.09-3.49-12.13c1.74-0.87,3.7-0.85,5.63-0.77c0.07-4.81,0.77-9.54,1.83-14.21
		c-3.18-4.69-6.28-9.43-9.44-14.13c-1.44-2.21-3.72-3.61-5.77-5.17c-3.77-2.79-7.53-5.79-12.01-7.37
		c-3.14-1.12-6.5099-1.17-9.79-1.3c1.86,1.42,4.79,2.4,4.91,5.16c0.16,3.48-2.9301,5.75-5.09,8c4.87,0.53,9.78,0.23,14.65-0.21
		c0.45,2.26,0.79,4.63,2.2599,6.5c-2.08,1.35-4.19,2.65-6.21,4.09c1.65,1.86,1.33,4.2,0.61,6.37c4.27-0.04,8.7,0.01,12.64,1.9
		c-3.49,3.7-9.38,7.36-8.4,13.17c2.01,2.91,5.84,3.06,9,3.78c0.12,4.66-5.36,7.46-4.01,12.29c1.9,6.45,7.98,11.03,8.86,17.91
		c0.7599,4.54-1.27,8.8-3.28,12.72c4.62,1.59,10.42,3.31,12.27,8.37c0.94,5.34-4.74,8.16-8.64,10.25c-0.04,3.56,0.06,7.14-0.32,10.7
		c-0.38,3.28,2.19,7.2-1.18,9.65c-21.33-17.9-43.88-34.45-67.94-48.52c-1.81-1.08-3.77-1.97-5.29-3.44
		c1.95-1.41,4.07-2.64,5.86-4.28c0.7-1.71,0.7-3.71,1.73-5.27c2.08-2.34,4.93-3.76,7.34-5.71c1.3-1.89,0.55-5,2.93-6.15
		c2.37-1.64,4.73-3.32,6.84-5.31c1.55,0.23,3.11,0.57,4.66,0.94c2.44-2.78,4.23-6.26,4.38-10c0.35-3.24-0.28-6.64,0.91-9.74
		c1.28-2.8,4.26-4.04,6.8-5.42c-0.0699-1.15-0.1299-2.3-0.2-3.45c-2.12-0.13-4.25-0.19-6.35-0.35c1.36-2.18,2.12-4.66,0.95-7.1
		c1.79-0.01,3.58,0.03,5.39-0.01c0.65-0.74,1.3-1.48,1.94-2.23c-0.26-7.27-7.62-14.06-3.4-21.35c2.92-0.58,5.92-2.13,6.83-5.16
		c0.19-3.42-0.05-6.85,0.12-10.27c-3.48-2.35-6.5-5.27-9.62-8.05c34.64,1.57,68.93,7.01,103.33,11.11c1.11,0.12,2.35,0.22,3.21,1.08
		c7.21,5.92,15.7401,10.13,24.29,13.8c9.9501,4.41,21.0801,6.33,30.15,12.62c-13.92,0.94-27.87,0.15-41.79,0.08
		c9.37,8.22,19.5901,15.5,28.26,24.5c2.91,2.77,5.26,6.09,8.38,8.64c0.8,0.99-1,1.04-1.5299,1.32l-0.13-0.98
		c-4.64-2.22-9.4501-4.99-14.77-4.66c-9.3401,0.39-18.6901,0.75-28.02,0.02c4.46,6.78,10.9,11.93,17.95,15.82
		c10.4301,5.82,20.91,12.03,29.12,20.86c-6.08,0.96-12.12,2.35-18.2899,2.54c6.74,10.17,13.26,20.49,20.0299,30.64
		c8.9901,13.51,18.3301,28.08,33.1901,35.73c7.14,4.09,14.8199,7.48,21,13.02c4.3,3.58,4.3199,9.62,6.52,14.4
		c-0.99,2.05,0.8099,3.8,1.6,5.5699c-6.61,0.32-11.45-4.8-16.8199-7.77c2.72,7.61,5.58,15.18,8.72,22.63
		c2.45,5.65,4.4299,11.82,8.95,16.24c4.28,4.37,8.29,9,12.46,13.49c6.17,6.87,10.77,15.02,14.26,23.54
		c-16.1699-7.7-31.75-16.55-47.37-25.29c-9.5299-5.33-20.33-7.65-31.1-8.65c0.03,3.5,2.84,7.4901,0.21,10.63
		c15.8101,13.06,31.0701,27.22,42.64,44.28c4.9601,7.73,9.6801,16.46,9.24,25.93c-0.48,7.43-6.2699,13.32-12.8999,16
		c4.36,3.47,9.0299,6.75,12.2,11.43c2.78,3.68,4.34,8.06,6.26,12.22c-4.2,0.98-10.4-1.9301-13.09,2.46
		c-3.74,12.88,3.7,26.13,0.0599,39.05c1.3301,8,3.4401,15.94,5.14,23.9c-3.14,1.71-6.72,3.08-8.84,6.12
		c-1.67,2.33-3.2001,4.78-4.42,7.37c-1.22,3.53-0.2999,7.46-1.6899,10.96c1.83,2.09,4.2,3.96,5.01,6.73
		c-1.4801,0.57-3.76,0.89-3.8301,2.9c-0.59,8.53,5.28,16.43,3.66,24.98c-4.91,12.1-12.8,22.64-19.24,33.92
		c-1.42-8.02-3.88-15.85-4.58-23.99c-0.9301-8.32-1.6101-16.76-4.55-24.67c-1.84-4.49-0.1801-9.22,2.4399-12.98
		c-4.38-1.82-8.3199-4.46-11.75-7.71c-2.7699,2.43-5.46,5.56-9.2999,6.15c-2.91,0.06-5.5601-1.39-8.28-2.2
		c1.78,4.09,4.05,9.63,0.33,13.37c-4.47,4.23-10.1,7.13-14.1399,11.87c-2.2001,2.56-5.3201,5.42-4.6901,9.13
		c1.72,3.36,5.63,4.64,8.35,7.04c-9.71,3.97-19.6799,7.45-28.9099,12.49c-3.55,2.22-7.8701,4.53-8.9901,8.91
		c-1.75,7.05,3.14,14.03,0.91,21.04c-0.63,2.29-2.86,4.6-5.41,3.62c-5.25-1.99-8.42-6.92-12.59-10.38
		c0.88,5.04,1.78,10.12,1.78,15.27c-0.1,4.15,1.64,8.03,2.09,12.13c-9.17-0.73-18.35-1.19-27.5-2.07c-0.3,4.19,0.55,9.04-2.16,12.61
		c-2.26,2.59-5.89,1.17-8.58,0.25c-6.3-2.59-13.96-0.14-18.02,5.19c-4.7,6.09-6.22,13.81-9.46,20.65
		c-2.42,4.42-0.91,9.65-1.24,14.45c-5.82,3.23-12.49,5.61-19.24,4.59c-7.94-1.19-15.65-3.6-23.65-4.48
		c-0.18,2.17-2.13,5.37,0.45,6.76c6.19,4.28,13.88,7.67,16.77,15.21c1.32,5.87,2.36,11.8201,3.86,17.66
		c-3.53,0.66-8.04,0.02-10.57,3.11c-0.48,4.37,1.46,8.25,3.39,12.01c-5.8,5.21-13.64,0.45-20.33,0.59
		c1.1,6.4301,1.91,13.85-2.17,19.4601c-1.51,2.4299-4.65,3.08-6.42,5.11c0.41,2.2799,1.14,4.51,1.56,6.8099
		c-2.32-0.08-4.63-0.1699-6.93-0.26c-4.15-5.71-10.43-9.35-17.09-11.34c5.38,8.15,11.84,15.6899,16.18,24.54
		c6.09,11.0599,9.58,24.7,4.83,36.8999c-1.19-0.2599-2.35-0.5-3.51-0.74c-1.69,5.0601-7.58,7.0801-9.01,12.28
		c-1.8,6.52,1.68,13.03,0.92,19.63c-3.46,0.0601-7.89-1.1799-10.25,2.15c-4.32,4.48-9.11,11.02-16.18,9.78
		c-6.78-1.77-11.79-7.11-16.74-11.75c-0.57,1.62-0.44,3.99-2.4,4.6699c-3.9-0.23-7.73-1.46-11.66-0.9299
		c-0.04,2.61-0.05,5.22-0.01,7.84c4.34,3.52,7.02,9.59,12.81,10.92c3.95,0.88,8.32,0.3199,11.95,2.37
		c7.54,4.74,6.38,16.2,14.71,20.1899c-1.08-5.08-4.48-9.85-3.53-15.2c1.37-3.65,5.32-5.6901,8.87-6.64
		c2.83,1.08,4.92,3.84,7.98,4.29c2.09-0.5801,3.15-2.7101,4.33-4.3401c2.8-4.38,5.08-9.0599,7.89-13.4299
		c1.48,1.39,3.07,2.6599,4.76,3.8199c1.06-0.63,2.13-1.24,3.21-1.83c0.58-6.41-0.19-14.02,4.65-19.03
		c4.81-3.3199,10.79,1.11,15.94-1.11c11.89-4.23,22.77-10.75,34.44-15.49c-6.79-1.8301-13.06-5.0601-19.49-7.8101
		c10.64-2.5399,21.45-5.1899,31-10.72c2.12-1.34,4.25-3.16,4.74-5.75c-0.11-4.02-3.57-6.66-6.19-9.23
		c7.43-2.34,15.13-4.01,22.27-7.2c4.53-1.64,1.4399-7.0701,1.3199-10.4901c10.39-1.34,20.06-5.5199,29.48-9.8899
		c-5.58-1.78-10.99-4.2101-15.54-7.9501c7.39-0.1899,14.92,0.3301,22.16-1.49c3.42-0.6799,5.4-3.77,7.51-6.23
		c1.7-2.41,4.66-4.3201,4.88-7.47c-0.63-2.1901-3.23-2.6901-5.07-3.38c-4.93-1.79-10.68-2.02-14.93-5.2101
		c8.75-0.2899,17.27-2.3999,25.71-4.59c4.26-1.0499,7.5499-4.12,10.6799-7.03c-4.9199-0.0199-9.87,0.63-14.74-0.22
		c3.9-0.62,7.88-0.91,11.6801-2.0699c3.0399-1.3401,5.63-4.1901,6.0399-7.5701c-0.09-2.42-2.37-4.4-4.72-4.4
		c-2.46,0.03-4.88,0.4-7.3099,0.63c-1.2101-4.06-1.02-8.38,1.2599-12.02c-3.21,0.03-6.7899,0.24-9.3699-2.01
		c9.14-2.31,18.2-5.37,26.27-10.34c3.52-2.34,7.23-5.36,8.1-9.73c0.51-2.9-1.6299-5.24-2.97-7.54c11.38,1.98,22.62,4.94,33.14,9.8
		c-3.67-6.33-7.41-12.69-12.35-18.13c-1.38-1.38-1.3101-3.41-1.7-5.17c6.0699-4.35,13.4199-8.24,16.48-15.44
		c1.61-4.69-2.66-8.14-5.9701-10.57c3.3-1.67,6.65-3.68,8.54-6.99c2.99-5.04,2.4301-11.2,1.1-16.66
		c3.5601-1.41,7.01-3.14,10.0701-5.46c-2.2001,6.7-0.15,13.88,2.84,20c5.21,10.52,12.4,19.97,20.52,28.42
		c4.8099,4.84,10.0499,9.39,16.2,12.45c-3.8199,2.3-8.0599,5.03-9.49,9.5c-1.26,6.19,3.26,11.26,6.3201,16.11
		c4.4199,6.35,8.5399,13.59,8.09,21.61c0.26,5.63-3.04,10.5-3.75,15.97c-0.64,4.63-0.4,9.33-0.15,13.99
		c1.79,23.0701,7.3201,45.6,12.4501,68.09c5.5399,22.61,11.7699,45.05,17.6899,67.5701v2.3199c-1.51,4.16-3.3199,8.38-6.5601,11.5
		c-6.9099,6.62-14.7599,12.38-23.6,16.13c-20.9199,9.8101-43.5499,16.29-66.71,17.4c-6.1801,0.9-13.3-0.5601-18.62,3.41
		c-6.17,5.9-6.91,15.2799-12.54,21.61c-1.5399,1.62-3.6799,2.63-5.9,2.85c-45.65,5.6901-91.6899,8.1901-137.6699,8.37
		c-2.98-1.33-6.27-0.99-9.42-1.0699c-9.33-0.1801-18.65,0.0199-27.98-0.1001c-2.22-0.12-4.39,0.3301-6.42,1.1801
		c-54.14-0.49-108.25-2.4399-162.38-3.39c5.69-4.1899,11.49-9.3099,13.14-16.5c3.1-9.87,3.75-20.24,5.58-30.37
		c0.75-4.35,1.69-8.66,2.3-13.03c1.09-6.5299,2.57-12.98,3.53-19.52c-21-2.21-36.95-18.86-57.71-21.85
		c-3.21-0.4199-6.72-1.0399-9.65,0.7201c-7.31,3.7899-14.75,7.3199-22.06,11.09c-2.27,0.91-2.61,3.5399-3.39,5.5599
		c-1.69,5.51-4.07,10.77-6.08,16.17c-4.35,6.42-8.54,13.37-15.3,17.5699c-10.2,6.67-20.78,12.8301-31.91,17.8201
		c-5.9301,2.73-12.1801,4.6899-18.09,7.47c-3.48,0.6901-6.99,1.55-10.57,1.35c-7.41-0.46-14.53-3.1699-22-3.14
		c-7.94-0.1499-16.42,0.89-23,5.7101c-3.56,2.47-6.32,5.9-8.45,9.64c-4.88,0.2799-10.56,0.3099-13.51,4.9399
		c1.05,0.54,2.12,1.09,3.19,1.66c-2.49,1.0399-4.58-1.11-7.1-0.88c-12.23-0.89-24.07-4.22-35.83-7.51
		c-5.1-4.37-11.55-6.5601-17.94-8.26c-11.68-3.4301-21.74-10.52-31.82-17.09c-7.28-4.6901-15.27-9.17-24.18-9.2201
		c-1.58,1.25-3.12,2.5701-4.63,3.91c-4.48,0.74-8.96,1.41-13.46,2c-0.06-8.75,0.01-17.5-0.04-26.25
		c-11.27-0.7899-22.51-2.99-33.03-7.1899c-10.07-4.0801-19.38-9.91-29.75-13.28c-10.1-3.49-20.77-4.74-31.36-5.6901
		c6.43-5.9299,10.85-13.62,15.62-20.86c-18.56-0.0399-37.5,1.92-55.67-2.88c-6.14-1.97-9.57-7.99-12.32-13.3899
		c-5-9.65-10.81-18.8601-15.32-28.76c-6.76-13.9601-13.03-28.8401-24.78-39.4401c-2.32-2.33-5.29-4.83-5.26-8.4
		c0.23-3.23,1.99-6.0399,3.21-8.9399c-1.92-2.4401-0.03-5.53,0.15-8.23c-4.64,1.38-10.79,1.99-14.03-2.41
		c-3.75-5.64-4.64-12.72-8.75-18.17c-2.73-3.83-6.77-6.5-11.13-8.14c2.28-3.27,2.76-7.39,5.02-10.67
		c-11.7-11.82-22.3-24.73-31.6-38.52c-8.42-12.75-16.19-26.35-19.44-41.43c-0.87-6.15-1.22-12.95,2.18-18.44
		c2.61-4.59,7.45-7.36,12.36-8.87c-6.39-5.2-13.23-9.95-20.93-13.02c-2.2,3.04-4.46,8.01-8.92,7.47
		c-4.76-2.6201-5.16-8.83-6.44-13.55c-2.91-17.8-2.28-35.93-1.08-53.86c2.05-1.01,0.59-4.33,1.05-6.26
		c9.99-4.15,19.92-8.72,28.65-15.19c11.7-8.17,20.63-19.67,32.57-27.48c9.17-2.25,18.53-3.77,27.84-5.33
		c5.46-0.61,9.16-5.78,14.82-5.8c3.25-1.28,3.86,2.74,5.32,4.64c0.72,1.67,2.85,0.74,4.21,1.02c-0.34,2.41-1.38,4.89-0.58,7.33
		c4.19,0.32,8.02-1.63,12.13-2c10.26-0.62,19.99-4.23,29.64-7.5c12.58-4.73,25.35-9.02,37.78-14.12
		c9.63-5.72,20.19-10.75,31.62-10.97c6.66-0.02,13.4-1.07,19.37-4.19c12.88-6.45,24.3-15.48,37.37-21.61
		c11.23-5.3,23.43-8.06,35.53-10.5699c-12.21-4.57-25.53-5.11-38.31-7.36c-5.72-1.15-11.52,0.77-17.23-0.29
		c-0.5-1.84-1.27-3.58-2.61-4.95c-12.66,2.35-24.49,7.9-37.14,10.24c4.97-2.25,9.38-5.5099,13.57-8.96
		c-11.05,0.47-22.07,1.24-33.11,1.83c-3.34-0.15-5.39,3.15-8.52,3.6c-13.82,0.81-27.57-1.12-41.35-1.6
		c8.81-3.29,17.85-6.03,26.71-9.27c-12.68-1.22-25.48-0.97-38.18-1.99c-9.39-0.6-18.78-1.1801-28.17-1.8c-1.5,0-2.94-0.63-3.73-1.98
		c3.6,0.09,7.21,0.45,10.81,0.1c8.05-0.95,16.76-0.72,23.67-5.65c-19.87-0.2-39.77,1.49-59.61-0.15c-1.22-1.32-1.89-3.68-3.96-3.77
		c-6.33-0.58-12.99-2.04-18.27-5.51c8.4-0.07,16.83,0.71,25.22-0.13c-6.76-0.79-13.72-1.42-19.76-4.84
		c-4.52-1.58-5.77-7.15-10.23-8.8c-4.92-2.52-10.87-0.56-15.7-3.28c-5.7-3.19-10.6-7.65-16.32-10.8
		c-14.05-3.36-28.54-4.74-42.97-5.04c-3.96-0.5-8.18,0.23-11.96-1.18c1.31-1.65,2.71-3.21,4.31-4.58c-4.26-0.67-8.66-2.53-10.82-6.5
		c-1.89-3.5-4.24-6.73-7.4-9.19c8.67-0.66,18.66,3.68,26.14-2.53c-7.71-2-14.8-6.07-20.86-11.16c-2.2-2.14-5.13-4.33-5.18-7.68
		c1.11-2.23,3.8-2.51,5.81-3.53c4.9-2.08,9.9-5.71,11.03-11.2401c0.88-6.48-3.63-12.05-8.2-16.06c-4.78-4.41-10.74-7.17-16.12-10.62
		c4.7-1.12,9.15-3.63,11.66-7.89c2.95-4.84,7.17-9.64,13.21-10.1201c-0.22-0.68-0.43-1.36-0.63-2.03c0.89-1.45,2.55-2.72,2.38-4.58
		c-1.42-2.75-5.28-4.18-5.24-7.69c0.52-3.06,4.08-3.57,6.55-4.3c-2.49-0.95-5.44-1.24-7.41-3.21c-1.23-2.36,1.27-4.17,2.87-5.44
		c7.23-5.37,14.77-10.5,20.62-17.44c-1.5-0.28-3.17-0.37-4.2-1.67c3.38-2.27,7.48-4.68,8.17-9.09c1.32-7.56-5-14.52-3.02-22.07
		c1.35-4.5,6.29-5.81,9.57-8.43c-5.26-0.2-10.38,1.14-15.56,1.83c6.34-4.7,14.51-8.54,17.51-16.33c-0.39-3.41-4.27-3.94-6.84-4.94
		c7.3-0.97,14.17-4.24,19.96-8.72c4.84-3.99,9.33-9.05,10.7-15.34c0.68-2.95-0.14-6.66-3.09-8.06c-4.85-2.24-10.16-0.23-14.99,1.01
		c-1.91-3.93-4.64-7.4-6.32-11.45l-0.16-1.02c12.28-1.74,24.76-5.77,37.17-2.59c1.83,3.33,3.97,6.62,7.21,8.75
		c-4.21,3.38-8.87,6.05-13.56,8.67c-0.09,0.58-0.25,1.76-0.33,2.35c6.7,1.07,13.18,3.48,20.03,3.65c-0.29,1.86-0.54,3.76-1.24,5.53
		c-1.73,1.52-4.25,1.71-6.3,2.66c-3.77,1.44-7.7,2.39-11.68,3.05c0.83,0.03,1.66,0.05,2.5,0.06c3.07,2.35,7.14,1.08,10.7,1.33
		c3.56,0.17,7.55-0.88,10.68,1.32c-3.8,5.43-10.51,7.2-15.49,11.19c13.7,1.47,27.09,4.85,40.71,6.81c0.93,1.28,2.5,1.58,3.89,2.14
		c0.41,2.26-0.42,5.24,1.9,6.66c0.27,2.1,0.49,4.22,0.56,6.35c-4.67,5.11-12.12,4.8-18.5,5.36c-0.11,2.31,0.94,4.56,3.6,4.19
		c3.29,0.44,6.62,0.56,9.94,0.48c0.12,0.18,0.36,0.52,0.48,0.69c-6.31,1.76-12.98,2.02-19.07,4.57c4.03,3.45,8.23,6.91,13.34,8.61
		c0.06,0.66,0.17,1.99,0.23,2.65c-11.99,1.75-24.11,3.03-35.81,6.33c-1.73,0.4-3.49,0.68-5.24,1.01c0.88,0.9,1.76,1.81,2.64,2.72
		c9.35,0.2,18.6-2.02,27.96-1.24c1.11,0.56,2.13,1.26,3.07,2.09c-1.26,1.83-3.92,0.98-5.82,1.41c0,0.62,0,1.86,0,2.49
		c6.87,0.4,13.69,1.58,20.61,1.32c-4.79,2.94-10.46,3.79-15.86,4.97c0.39,1.1,0.56,2.71,2.01,2.93c4.72,1.92,9.7,3.02,14.55,4.55
		c1.22-0.34,2.34-0.95,3.34-1.74l-1.84,2.65c1.85-2.88,4.82-2.16,7.44-2.03c-1.47,0.54-5.6-0.87-4.84,1.85
		c13.1-0.53,26.23,1.28,39.34,0.48c7.97-0.99,15.46-4.38,22.16-8.69c6.87-4.34,11.41-11.58,18.6-15.49
		c11.33-5.66,23.6-8.96,35.35-13.56c1.71-0.18,2.15-1.75,2.22-3.21c-5.71-1.32-11.54-2.11-17.19-3.68
		c-1.89-0.42-3.51-1.51-4.73-2.98c1.7-2.79,5.12-3.09,7.96-3.92c3.69-1.14,7.55-1.36,11.36-1.82c-5.86,0.12-11.78,1.59-17.61,0.66
		c-6.9-2.47-13.51-6.04-20.9-6.92c7.53-6.04,17.72-6.74,26.98-7.44c-3.09-4.57-9.14-4.29-12.98-7.84c-3.86-3.44-8.4-6.4-13.61-7.17
		c-3.2-0.44-6.79,0.27-9.64-1.57c-1.19-1.63-0.88-4.06-2.69-5.4c2.81-3.15,5.96-6.25,10.12-7.5c8.17-2.65,16.73-4.06,24.58-7.68
		c-0.15-0.1-0.43-0.31-0.57-0.41c-0.34-0.25-1.04-0.76-1.38-1.01c-5.46,0.18-11.22-1-16.45,0.95c-18.44-1.3-36.58-5.38-54.37-10.27
		c-2.94-0.95-7.34-2.94-6.26-6.76c2.22-6.44,10.18-7.38,13.64-12.78c-8.87,0.87-17.9,1.03-26.51,3.55
		c-9.54,2.84-19.22,7.19-29.41,5.16c0.07-0.71,0.21-2.13,0.27-2.83c4.98-4.91,10.87-8.84,17.35-11.48c2.8-1.45,6.14-1.5,8.85-3.11
		l-0.16-1.22c-7.53-0.77-15.18,0.61-22.67-0.46c-0.31-0.37-0.92-1.11-1.22-1.48c0.18-0.15,0.54-0.46,0.72-0.61
		c-12.15-1.26-24.33-2.9-36.12-6.14c11.03-1.07,22.12-1.99,33.03-4.08c0.13-0.32,0.41-0.96,0.55-1.29
		c-3.06-2.33-7.02-2.64-10.57-3.8c-3.23-1.05-6.57-1.67-9.95-2.04c2.63-2.73,5.43-5.79,9.31-6.59c7.06-1.64,14.37-1.37,21.54-2.18
		c3.77-0.48,7.48-1.39,11.15-2.41c-6.47-0.37-12.96-0.43-19.41-1.06c-8.8-0.73-17.86-2.9-24.78-8.67c1.02,0,3.08,0.01,4.11,0.01
		c-4.24-1.57-8.81-0.15-13.12-1.63c0.06,2.11-0.1,4.24,0.28,6.32c0.72,2.24,4.89,2.87,4.03,5.45c-5.57,0.62-11.2-0.14-16.78,0.42
		c-3.8,0.07-7.83,0.38-10.77,3.1c-3.16-3.88-6.48-7.87-11.01-10.18c-4.12-2-8.8-2.01-13.17-3.18c13.02-0.64,26.09-1.14,39.12-0.23
		c-0.39-1.84-1.17-3.72-0.44-5.57c-1.94-4.12-1.75-9.14-4.83-12.69c-1.67-0.16-3.35-0.3-4.99-0.62c-5.21-0.71-9.04-4.67-13.4-7.22
		c1.14-0.85,2.26-1.7,3.39-2.56c11.07,1.78,22.18,3.29,33.23,5.22c-2.56-2.56-5.22-5.03-7.56-7.78c-0.99-2.7-1.31-5.63-1.77-8.46
		c-0.46-1.85,1.83-2.51,3.22-2.17c11,0.42,19.33,9.45,30.19,10.5c8.37,0.52,16.76-0.29,25.14-0.03c-8.07-2.07-14.93-6.96-22.5-10.2
		c-3.86-1.81-8.21-1.57-12.32-2.28c-7.44-1.02-14.87-3.71-20.56-8.74c-2.79-2.47-5.84-4.62-9.06-6.47
		c-1.56,1.45-3.69-1.99-1.15-1.16c8.04,3.13,17.05,2.52,25.09,5.71c1.93,2.07,3.32,4.88,6.33,5.59
		c14.09,5.26,27.49,12.98,42.61,14.92c-3.59-5.03-7.58-9.94-12.88-13.25c-7.41-5.25-16.82-5.55-24.99-9.02
		c-9.89-3.3-19.28-8.12-27.54-14.51c6.07,0.07,12.14-0.01,18.21,0.05c-1.01-1.78-1.61-3.88-3.04-5.38c-2.16-0.42-4.3,0.88-6.49,0.88
		c-3.78-2.9-5.03-7.69-6.72-11.9c-1.96-4.98-5.83-8.85-9.87-12.22c7.19,0.58,14.48,0.99,21.51,2.71c2.29,1.8,3.18,4.89,5.58,6.6
		c13.12,7.41,28.03,10.46,42.67,13.24c5.13,0.69,9.26,3.85,13.75,6.13c-4.33-3.6-8.6-7.28-13.14-10.6
		c-13.12-9.65-28.22-16.17-41.31-25.86c-0.5-1.9-1.04-4.96,1.42-5.72c3.2-0.55,6.71-0.06,9.34,1.97c4.7,3.3,9.45,6.63,14.81,8.78
		c-3.36-5.05-6.83-10.19-11.45-14.2c-2.1-2.02-4.06-5.56-1.77-8.18c1.76-0.01,3.51,0.27,5.21,0.74
		C122.19,189.55,114.81,181.72,107.14,174.2 M149.96,506.53c11.99,0.74,24.02,0.37,36.03,0.48c1.69-0.18,3.73,0.36,5.11-0.89
		c-12.03,0.1-24.07,0.2-36.09-0.38C153.28,505.63,151.59,506,149.96,506.53 M315.16,689.41c-1.11,2.3,3.83,1.65,3.5-0.24
		C317.47,688.49,316.31,688.57,315.16,689.41z"/>
	<path fill="#E9CDAB" stroke="#E9CDAB" stroke-width="0.3" d="M646.39,193.38c0.36-0.67,0.73-1.34,1.13-1.99
		c1.46,0.01,2.92-0.18,4.39-0.22c6.78,2.05,12.16,7.25,15.72,13.23c2.8,4.76,7.86,8.22,8.96,13.91c0.96,3.24,0.74,6.99,2.94,9.76
		c0.7599-3.28,0.59-7.01,2.66-9.84c2.13-2.37,5.32-0.28,7.09,1.46c4.91,4.88,10.9399,9.86,11.56,17.28
		c0.98,5.34-1.51,11.56,1.97,16.26c5.61,4.94,13.15,6.71,20.17,8.74c4.27,1.14,9.06,2.55,11.43,6.65
		c3.83,5.65,2.94,12.78,4.57,19.11c0.32,2.97,0.68,5.93,1.15,8.88c1.27,9.01,2.59,18.08,5.41,26.76c1.78,4.61,5.96,9.08,4.12,14.37
		c-2.71,7.03-10.3199,11.02-12.5099,18.35c-1.01,2.74,3,4.12,2.45,6.83c-0.97,6.67-1.18,13.46-2.72,20.04
		c-9.57-2.62-17.58-9.05-27.2-11.54c-12.43-2.47-24.75,1.88-36.33,5.98c-2.92,0.88-5.06,3.5-5.23,6.56
		c-0.35,3.23-1.18,7.65-5.14,8.1c-3.47-0.66-6.31-3-9.16-4.93c-10.62-7.84-21.24-16.62-34.42-19.61c-7.59-1.4-15.41-1.02-23.01,0.01
		c-19.36,3.53-37.82,11.64-53.82,23.06c-10.64,7.48-20.84,16.49-26.58,28.4c-2.58,5.12-0.18,10.73-0.13,16.08
		c-0.54,7.28-5.12,13.87-11.52,17.29c-6.94,3.74-10.13,12.13-9.19,19.7c1.44,9.02,10.84,14.51,11.3,23.84
		c0.62,4.89-1.49,9.48-3.04,13.99c-0.79,4.34-3.68,8.53-8.44,8.85c-5.52,1.6-10.54-1.87-13.6-6.17
		c-4.79-6.47-12.3-10.82-20.45-10.88c-6.53-0.58-11.35,5.3-17.8,5.15c-4.87,0.37-9.92-1.11-13.39-4.64
		c-3.44-3.33-6.66-7.44-11.62-8.47c-5.03-1.49-10.52,2.96-15.15-0.66c-4.45-2.4-2.88-8.14-1.87-12.06c3-9.74,6.53-19.32,9.9-28.94
		c3.96-12.72,13.6-22.52,24.12-30.19c-4.75-0.53-9.54,0.13-14.26-0.63c5.04-0.05,10.11,0.32,15.13-0.29
		c3.56-1.57,6.59-4.13,10.06-5.89c7.03-3.99,15.11-7.33,19.66-14.38c3.16-4.69,1.15-10.47,1.51-15.68c0.13-2.29,1.94-3.92,3.36-5.53
		c5.44-5.5,9.7-12.32,16.47-16.38c8.42-4.94,17.71-8.18,26.27-12.88c8.63-4.7,17.88-10.29,21.92-19.72c4-7.83,4.81-16.83,5.02-25.49
		c0.42-17.02-0.65-34.04-0.06-51.06c0.15-4.51,1.01-8.99,2.53-13.23c1.97-4.96,5.63-9.92,11.16-11.03
		c6.18-1.25,11.98,2.01,17.05,5.14c2.75-4.6,4.45-9.83,7.95-13.97c3.01-3.89,7.91-6.93,13-5.68c4.92,1.18,10.19,4.42,11.26,9.74
		c0.72,2.67,1.68,5.95,4.87,6.5c3.63-0.14,5.23-3.84,6.88-6.5c2.06-3.71,4.79-8.08,9.56-8.19c-0.49,4.45,0.35,8.92-0.14,13.38
		c3.05-4.15,5.69-8.6,8.21-13.08c2.71,4.33,2.87,9.52,4.57,14.21c3.5099-1.39,5.61-4.84,7.1299-8.12c3.21-7.58-2.21-15.72,0.6-23.36
		C645.4,197.65,647.12,195.66,646.39,193.38z"/>
	<path fill="#EDDDC4" stroke="#EDDDC4" stroke-width="0.3" d="M646.39,193.38c0.73,2.28-0.99,4.27-1.57,6.38
		c-2.81,7.64,2.61,15.78-0.6,23.36c-1.52,3.28-3.62,6.73-7.1299,8.12c-1.7-4.69-1.86-9.88-4.57-14.21c0.2-1.37,0.64-2.63,1.33-3.8
		c1.94,2.49,3.63,5.15,5.47,7.71c0.97-2.9,0.74-6,1.13-8.99C641.27,205.47,642.77,198.92,646.39,193.38z"/>
	<path fill="#98896F" stroke="#98896F" stroke-width="0.3" d="M829.34,263.36c7.08-7.54,14.05-15.33,22.12-21.82
		c-0.7,1.2-1.57,2.28-2.59,3.21c-20.43,20.14-37.47,43.33-54.28,66.48c-7.91,10.94-15.78,21.92-24.16,32.51
		c-2.99,3.69-6.07,7.32-9.52,10.59c-0.85-0.72-1.65-1.49-2.4-2.3C782.02,322.4,803.72,291.26,829.34,263.36z"/>
	<path fill="#74633E" stroke="#74633E" stroke-width="0.3" d="M708.48,247.51c1.76-0.84,3.65-1.37,5.57-1.72
		c8.26-1.18,15.31,4.28,22.35,7.69c9.18,4.15,13.53,14.84,12.85,24.46c-0.06,6.62,0.13,14.26-5.16,19.16
		c-1.33-0.16-2.65-0.32-3.96-0.49c-0.47-2.95-0.83-5.91-1.15-8.88c1.49-3.7,2.67-7.92,1.23-11.83c-2.92-8.48-9.48-15.5-17.41-19.57
		c-3.56-0.98-7.15,1.6-10.71,0.68C708.94,255.25,706.74,250.87,708.48,247.51z"/>
	<path fill="#4B4008" stroke="#4B4008" stroke-width="0.3" d="M493.08,261.15c2.77-0.18,5.65-0.63,8.37,0.23
		c6.53,2.33,13.5,4.57,18.38,9.78c8.31,8.45,11.21,20.54,12.69,31.93c1.07,9.36-4.76,17.32-10.26,24.24
		c-7.1,8.76-17.17,15.16-28.3,17.25c-10.22,1.96-20.85,1.3-30.97-0.95c-3.11-0.71-4.98-3.52-6.51-6.08
		c-1.97-3.35-5.19-5.85-6.67-9.51c-4.64-9.71-3.1-20.82-1.66-31.09c0.24-6.61,3.39-12.62,6.52-18.29
		c3.25-5.83,7.79-11.33,14.11-13.95C476.45,261.43,484.95,262.02,493.08,261.15 M476.99,274.79c-3.78,0.82-6.31,4.47-6.21,8.26
		c-0.11,6.11-0.38,13.12-4.72,17.84c-4.25,1.14-8.71,0.5-13.04,0.38c5.71,3.64,7.89,10.48,13.04,14.7c2.94,2.57,6.48,4.3,10.03,5.87
		c2.92,1.26,5.52,3.8,8.95,3.25c6.8-0.48,14.32-0.84,19.98-5.1c5.94-4.18,2.68-13.3,8.16-17.9c1.99-1.61,4.59-0.47,6.81-0.11
		c0.76-9.95,0.78-21.52-6.79-29.08c-4.48-5.47-12.21-3.34-18.32-4.1C488.2,268.12,483.21,273.54,476.99,274.79z"/>
	<path fill="#060102" stroke="#060102" stroke-width="0.3" d="M476.99,274.79c6.22-1.25,11.21-6.67,17.89-5.99
		c6.11,0.76,13.84-1.37,18.32,4.1c7.57,7.56,7.55,19.13,6.79,29.08c-2.22-0.36-4.82-1.5-6.81,0.11c-5.48,4.6-2.22,13.72-8.16,17.9
		c-5.66,4.26-13.18,4.62-19.98,5.1c-3.43,0.55-6.03-1.99-8.95-3.25c-3.55-1.57-7.09-3.3-10.03-5.87
		c-5.15-4.22-7.33-11.06-13.04-14.7c4.33,0.12,8.79,0.76,13.04-0.38c4.34-4.72,4.61-11.73,4.72-17.84
		C470.68,279.26,473.21,275.61,476.99,274.79 M494.51,276.6c-4.06,0.83-8.24,1.13-12.18,2.47c-0.28,1.15-1.51,2.25-1.16,3.47
		c2.88,2.51,5.85,5.1,7.67,8.53c1.35,2.72,0.58,5.87,1.49,8.67c5.07-2.76,10.97-3.14,16.62-2.9c-0.23-4.63-0.29-9.28-0.95-13.86
		c-0.89-4.72-5.73-7.59-10.32-7.36C495.39,275.87,494.8,276.36,494.51,276.6z"/>
	<path fill="#B2B0A3" stroke="#B2B0A3" stroke-width="0.3" d="M494.51,276.6c0.29-0.24,0.88-0.73,1.17-0.98
		c4.59-0.23,9.43,2.64,10.32,7.36c0.66,4.58,0.72,9.23,0.95,13.86c-5.65-0.24-11.55,0.14-16.62,2.9c-0.91-2.8-0.14-5.95-1.49-8.67
		c-1.82-3.43-4.79-6.02-7.67-8.53c-0.35-1.22,0.88-2.32,1.16-3.47C486.27,277.73,490.45,277.43,494.51,276.6z"/>
	<path fill="#F2DCBD" stroke="#F2DCBD" stroke-width="0.3" d="M770.43,343.74c8.38-10.59,16.25-21.57,24.16-32.51
		c2.34,4.79,8.04,5.77,12.45,7.81c4.93,1.78,7.45,6.66,10.18,10.76c3.73,5.64,2.16,12.96,5.1,18.88c3.02,3.33,8.24,2.03,11.94,4.13
		c1.5,1.28,2.62,2.93,3.86,4.46c-15.76,6.98-31.38,14.27-47.03,21.47c-1.59-3.15-3.08-6.47-2.57-10.09
		c-3.89-1.22-4.02-5.53-5.59-8.63c-1.84-3.41-5.42-5.24-8.07-7.89C772.58,349.83,771.38,346.76,770.43,343.74z"/>
	<path fill="#392D15" stroke="#392D15" stroke-width="0.3" d="M94.44,318.92c4.31,1.48,8.88,0.06,13.12,1.63
		c-1.03,0-3.09-0.01-4.11-0.01c6.92,5.77,15.98,7.94,24.78,8.67c-0.25,0.41-0.75,1.23-1.01,1.64c3.16,0.22,6.35,0.52,9.27,1.83
		c-7.17,0.81-14.48,0.54-21.54,2.18c-3.88,0.8-6.68,3.86-9.31,6.59c3.38,0.37,6.72,0.99,9.95,2.04c3.55,1.16,7.51,1.47,10.57,3.8
		c-0.14,0.33-0.42,0.97-0.55,1.29c-10.91,2.09-22,3.01-33.03,4.08c11.79,3.24,23.97,4.88,36.12,6.14c-0.18,0.15-0.54,0.46-0.72,0.61
		c-4.1,0.51-8.05,1.76-11.97,2.99c0.15,0.07,0.45,0.22,0.6,0.29c1.59,1.12,3.56,1.05,5.41,1c7.1-0.29,14.22-0.1,21.32,0.04
		c-0.04,0.49-0.12,1.47-0.16,1.95c-6.48,2.64-12.37,6.57-17.35,11.48c-0.06,0.7-0.2,2.12-0.27,2.83
		c10.19,2.03,19.87-2.32,29.41-5.16c8.61-2.52,17.64-2.68,26.51-3.55c-3.46,5.4-11.42,6.34-13.64,12.78
		c-1.08,3.82,3.32,5.81,6.26,6.76c17.79,4.89,35.93,8.97,54.37,10.27c5.94,0.41,11.89,0.44,17.83,0.06c0.14,0.1,0.42,0.31,0.57,0.41
		c-7.85,3.62-16.41,5.03-24.58,7.68c-4.16,1.25-7.31,4.35-10.12,7.5c1.81,1.34,1.5,3.77,2.69,5.4c2.85,1.84,6.44,1.13,9.64,1.57
		c5.21,0.77,9.75,3.73,13.61,7.17c3.84,3.55,9.89,3.27,12.98,7.84c-9.26,0.7-19.45,1.4-26.98,7.44c7.39,0.88,14,4.45,20.9,6.92
		c5.83,0.93,11.75-0.54,17.61-0.66c-3.81,0.46-7.67,0.68-11.36,1.82c-2.84,0.83-6.26,1.13-7.96,3.92c1.22,1.47,2.84,2.56,4.73,2.98
		c5.65,1.57,11.48,2.36,17.19,3.68c-0.07,1.46-0.51,3.03-2.22,3.21c-11.75,4.6-24.02,7.9-35.35,13.56
		c-7.19,3.91-11.73,11.15-18.6,15.49c-6.7,4.31-14.19,7.7-22.16,8.69c-13.11,0.8-26.24-1.01-39.34-0.48
		c-0.76-2.72,3.37-1.31,4.84-1.85c-2.62-0.13-5.59-0.85-7.44,2.03l1.84-2.65c-1,0.79-2.12,1.4-3.34,1.74
		c-4.85-1.53-9.83-2.63-14.55-4.55c-1.45-0.22-1.62-1.83-2.01-2.93c5.4-1.18,11.07-2.03,15.86-4.97
		c-6.92,0.26-13.74-0.92-20.61-1.32c0-0.63,0-1.87,0-2.49c1.9-0.43,4.56,0.42,5.82-1.41c-0.94-0.83-1.96-1.53-3.07-2.09
		c-9.36-0.78-18.61,1.44-27.96,1.24c-0.88-0.91-1.76-1.82-2.64-2.72c1.75-0.33,3.51-0.61,5.24-1.01c11.7-3.3,23.82-4.58,35.81-6.33
		c-0.06-0.66-0.17-1.99-0.23-2.65c-5.11-1.7-9.31-5.16-13.34-8.61c6.09-2.55,12.76-2.81,19.07-4.57c-0.12-0.17-0.36-0.51-0.48-0.69
		c-2.49-2.5-6.92-1.61-9.94-0.48c-2.66,0.37-3.71-1.88-3.6-4.19c6.38-0.56,13.83-0.25,18.5-5.36c-0.07-2.13-0.29-4.25-0.56-6.35
		c-0.24-2.72-0.44-5.45-0.62-8.17c-1.72-0.23-3.45-0.42-5.17-0.63c-13.62-1.96-27.01-5.34-40.71-6.81
		c4.98-3.99,11.69-5.76,15.49-11.19c0.64-0.94,1.25-1.88,1.85-2.82c-3.85-2.53-9.12,0.26-13.26-1.45c-0.2-0.37-0.59-1.12-0.79-1.49
		c2.05-0.95,4.57-1.14,6.3-2.66c0.7-1.77,0.95-3.67,1.24-5.53c-6.85-0.17-13.33-2.58-20.03-3.65c0.08-0.59,0.24-1.77,0.33-2.35
		c4.69-2.62,9.35-5.29,13.56-8.67c-3.24-2.13-5.38-5.42-7.21-8.75c-12.41-3.18-24.89,0.85-37.17,2.59l0.16,1.02
		c-0.13-0.24-0.39-0.72-0.52-0.96c-1.42,0.28-2.84,0.62-4.26,0.9c1.43-1.04,2.94-1.99,4.42-2.98c2.44-1.41,4.28-3.57,5.84-5.87
		c1.6-1.53,3.22-3.05,5.1-4.22c3.93-2.44,7.73-5.08,11.28-8.06c-2.83-0.67-6.34-1.27-7.82-4.13c-1.21-2.94-1.39-6.17-1.82-9.28
		c2.89-2.41,6.77-1.48,10.22-1.85c0.47-0.09,1.41-0.28,1.88-0.37c-2.99-3.58-8.41-4.62-10.25-9.29c1.11-3.99,5.6-4.93,9.17-5.3
		c5.58-0.56,11.21,0.2,16.78-0.42c0.86-2.58-3.31-3.21-4.03-5.45C94.34,323.16,94.5,321.03,94.44,318.92z"/>
	<path fill="#8A7A5E" stroke="#8A7A5E" stroke-width="0.3" d="M842.87,321.38c3.68-0.58,7.37-1.13,11.08-1.56
		c0.47,0.46,1.41,1.38,1.88,1.84c4.32-1.09,8.78-0.45,13.16,0.02c-2.92,3.76-9.23,0.34-12.3,4.05c-1.29,2.19-0.69,4.95-1.44,7.34
		c0.16,0.41,0.48,1.22,0.64,1.62c5.14-3.39,11.64-2.72,16.84,0.14c0.4-0.44,1.19-1.32,1.59-1.76c4.39-0.45,8.73-1.22,13.07-2.04
		c-0.42,2.16-0.85,4.33-1.47,6.44c-11.86,3.74-23.16,9.01-34.51,13.99c1.31-1.97,2.82-3.78,4.44-5.51
		c-5.67-3.37-11.98-5.85-18.69-5.58c1.33-2.42,2.59-4.88,3.79-7.38c-1.51-1.51-2.97-3.08-4.51-4.56c-1.54-1.92-4.28-0.82-6.34-1.12
		C834.04,324.78,838.12,322.02,842.87,321.38z"/>
	<path fill="#97886E" stroke="#97886E" stroke-width="0.3" d="M885.92,337.47c18.98-5.55,38.18-11.47,58.1-12.14
		c3.6-0.31,7.4,1.02,10.86-0.4c3.14,0.45,6.29,0.96,9.37,1.74c-15.46-0.14-31.14-0.25-46.29,3.34c-11.12,2.54-22,6.09-32.53,10.45
		c-0.48,0.9-0.94,1.81-1.37,2.74c-0.02-0.54-0.04-1.61-0.05-2.14c-10.38,4.36-20.81,8.7-30.78,13.92c-4.98,1.73-9.6,4.32-14.4,6.46
		c-15.47,6.89-30.81,14.2-46.86,19.68c-0.85,0.05-2.56,0.14-3.41,0.18c0.45-1.23,1.29-2.08,2.53-2.56
		c15.65-7.2,31.27-14.49,47.03-21.47c4.44-1.91,8.8-4.01,13.29-5.81C862.76,346.48,874.06,341.21,885.92,337.47z"/>
	<path fill="#EDDDC4" stroke="#EDDDC4" stroke-width="0.3" d="M917.96,330.01c15.15-3.59,30.83-3.48,46.29-3.34
		c1.45,0.43,2.57,1.54,3.81,2.39c-0.92,1.12-2.08,1.98-3.47,2.36c-7.9901,2.64-16.46,3.47-24.83,2.81
		c5.55,4.32,11.72,7.78,18.02,10.9c6.56,3.39,14.06,3.94,21.2599,4.91c6.69,0.92,13.45,1.28,20.17,2.01
		c-6.67,3.03-13.45,5.9-20.52,7.84c9.45,4.56,18.85,9.31,28.64,13.13c-3.45,1.85-6.97,3.56-10.52,5.19
		c4.95,1.83,9.9,3.84,15.18,4.46c11.03,1.07,21.13,6.04,31.84,8.51c-5.2999,2.52-10.8199,4.96-16.6599,5.86
		c-4.0701,0.93-8.04-0.6-12.0101-1.27c-33.09-6.48-66.62-10.82-100.3-12.44c0.87-1.83,1.72-3.67,2.57-5.52
		c-3.58,0.2-7.17,0.29-10.74,0.2c-0.11-1.34-0.21-2.66-0.29-3.99c3.61,1.4,4.3199-2.91,6.15-4.97c-2.38-1.82-4.74-3.78-7.55-4.88
		c-2.53-0.79-5.14,0.03-7.65,0.47c-0.75-0.65-1.47-1.3-2.17-1.96c1.67-1.62,3.32-3.27,4.98-4.91c0.22-1.92,0.6201-3.82,0.91-5.73
		c-0.7-0.74-1.4-1.46-2.11-2.16c-1.19,0.04-2.37,0.08-3.55,0.13c-0.83-5.34-7.77-3.76-11.34-5.92l-0.01-0.89
		c0.43-0.93,0.89-1.84,1.37-2.74C895.96,336.1,906.84,332.55,917.96,330.01z"/>
	<path fill="#33270F" stroke="#33270F" stroke-width="0.3" d="M127.22,330.85c0.26-0.41,0.76-1.23,1.01-1.64
		c6.45,0.63,12.94,0.69,19.41,1.06c-3.67,1.02-7.38,1.93-11.15,2.41C133.57,331.37,130.38,331.07,127.22,330.85z"/>
	<path fill="#FFF2D9" stroke="#FFF2D9" stroke-width="0.3" d="M71.05,334.07c0.44,0.59,1.32,1.76,1.75,2.34
		c1.84,4.67,7.26,5.71,10.25,9.29c-0.47,0.09-1.41,0.28-1.88,0.37c-2.25,0.1-4.46-0.39-6.65-0.79c0.91-0.29,2.74-0.85,3.66-1.13
		C74.02,342.76,68.87,339.15,71.05,334.07z"/>
	<path fill="#8A7A5E" stroke="#8A7A5E" stroke-width="0.3" d="M853.23,354.98c9.97-5.22,20.4-9.56,30.78-13.92
		c0.01,0.53,0.03,1.6,0.05,2.14l0.01,0.89c3.57,2.16,10.51,0.58,11.34,5.92c1.1801-0.05,2.36-0.09,3.55-0.13
		c0.71,0.7,1.41,1.42,2.11,2.16c-0.29,1.91-0.69,3.81-0.91,5.73c-1.66,1.64-3.31,3.29-4.98,4.91c0.7,0.66,1.42,1.31,2.17,1.96
		c2.51-0.44,5.12-1.26,7.65-0.47c2.81,1.1,5.17,3.06,7.55,4.88c-1.83,2.06-2.54,6.37-6.15,4.97c0.08,1.33,0.18,2.65,0.29,3.99
		c3.57,0.09,7.16,0,10.74-0.2c-0.85,1.85-1.7,3.69-2.57,5.52c-9.57-0.3-19.13-0.93-28.69-0.84c-3.49-2.57-6.78-5.38-9.82-8.44
		c0.7-1.83,1.34-3.69,1.73-5.61c-3.78,0.02-7.5-0.66-11.04-1.91c1.9901-1.7,4.45-3.13,5.62-5.57c0.6-1.44-0.5699-2.69-1.84-3.14
		c-2.77-1.1-5.72-1.63-8.59-2.3C859.26,354.77,856.16,355.97,853.23,354.98z"/>
	<path fill="#EDDDC4" stroke="#EDDDC4" stroke-width="0.3" d="M72.59,346.34c0.48-0.27,1.44-0.8,1.93-1.06
		c2.19,0.4,4.4,0.89,6.65,0.79c-3.45,0.37-7.33-0.56-10.22,1.85c0.43,3.11,0.61,6.34,1.82,9.28c1.48,2.86,4.99,3.46,7.82,4.13
		c-3.55,2.98-7.35,5.62-11.28,8.06c1.04-6.67-8.14-7.82-9.81-13.42c1.88-2.43,4.94-3.04,7.75-3.71c-1-2.68,1.79-4.18,3.71-5.26
		l-0.47-0.77C71.02,346.25,72.06,346.31,72.59,346.34z"/>
	<path fill="#EDDDC4" stroke="#EDDDC4" stroke-width="0.3" d="M838.83,361.44c4.8-2.14,9.42-4.73,14.4-6.46
		c2.93,0.99,6.03-0.21,9,0.54c2.87,0.67,5.82,1.2,8.59,2.3c1.27,0.45,2.44,1.7,1.84,3.14c-1.17,2.44-3.6299,3.87-5.62,5.57
		c3.54,1.25,7.26,1.93,11.04,1.91c-0.39,1.92-1.03,3.78-1.73,5.61c3.04,3.06,6.33,5.87,9.82,8.44c-13.86-0.18-27.71,0.95-41.33,3.48
		c1.22-3.46,3.28-6.96,2.91-10.73c-2.71-2.63-8.3-1.17-9.6-5.31C838.4,367.1,838.87,364.29,838.83,361.44z"/>
	<path fill="#F1E9DB" stroke="#F1E9DB" stroke-width="0.3" d="M774.93,355.84c2.59,3.17,3.58,7.23,5.39,10.84
		c5.81,12.61,10.35,25.75,15.63,38.58c2.08,8.74,3.35,17.79,3.03,26.78c0.22,3.72-2.4,6.51-4.15,9.5c0.52-0.03,1.58-0.1,2.11-0.13
		c-1.2,5.17-3.8,10.3-3.31,15.7c2.27,6.36,6.91,13.4,14.3,13.99c-2.21,18.51-9.57,36.21-20.74,51.1
		c-12.14,16.69-27.74,30.51-44.31,42.68c-16.8,12.13-34.87,22.43-53.49,31.49c-20.66,10.53-42.26,19.08-64.08,26.86
		c-6.04,2.44-12.41,3.94-18.35,6.63c-2.19-15.93-4.46-31.86-6.67-47.79c11.56,1.03,23.17,0.97,34.76,0.74
		c10.94-0.27,22.43,0.68,32.63-4.14c14.23-6.13,23.66-19.56,29.48-33.44c9.14-0.68,16.19-7.81,21.13-14.95
		c4.27-5.88,3.47-13.45,3.08-20.27c-0.41-4.63-0.16-9.27-0.47-13.9c4.9-5.3,8.61-11.53,11.77-17.99c2.13-0.35,4.13-1.23,5.79-2.62
		c9.61-7.26,19.3-14.73,26.74-24.3c12.03-14.04,18.69-32.61,17.96-51.12C783.19,384.92,778.42,370.4,774.93,355.84z"/>
	<path fill="#FFF2D9" stroke="#FFF2D9" stroke-width="0.3" d="M116.01,362.4c3.92-1.23,7.87-2.48,11.97-2.99
		c0.3,0.37,0.91,1.11,1.22,1.48c7.49,1.07,15.14-0.31,22.67,0.46l0.16,1.22c-11.8,0.25-23.62,0.36-35.42,0.12
		C116.46,362.62,116.16,362.47,116.01,362.4z"/>
	<path fill="#060102" stroke="#060102" stroke-width="0.3" d="M116.61,362.69c11.8,0.24,23.62,0.13,35.42-0.12
		c-2.71,1.61-6.05,1.66-8.85,3.11c0.04-0.48,0.12-1.46,0.16-1.95c-7.1-0.14-14.22-0.33-21.32-0.04
		C120.17,363.74,118.2,363.81,116.61,362.69z"/>
	<path fill="#F2DCBD" stroke="#F2DCBD" stroke-width="0.3" d="M791.97,381.12c16.05-5.48,31.39-12.79,46.86-19.68
		c0.04,2.85-0.43,5.66-0.68,8.49c1.3,4.14,6.89,2.68,9.6,5.31c0.37,3.77-1.69,7.27-2.91,10.73c-15.7,2.94-31.39,5.96-47.05,9.08
		c0.09,0.47,0.29,1.41,0.38,1.89c5.31,1.23,10.67-0.64,15.93-1.3c10.67-1.39,21.11-4.02,31.58-6.42c-0.07,0.72-0.13,1.43-0.18,2.16
		c1.9,2.58,4.3,5,4.95,8.26c1.31,5.71,0.13,11.6,0.62,17.39c-0.05,2.89,2.87,4.34,4.54,6.28c-0.4,4.32-0.42,8.84-2.41,12.81
		c-2.82,5.93-4.4,12.48-7.98,18.03c-2.86,1.82-6.56,1.72-9.4,3.61c-6.27,3.95-11.4,9.62-18.15,12.81c-3.19,0.73-6.5,0.47-9.74,0.53
		c-7.39-0.59-12.03-7.63-14.3-13.99c-0.49-5.4,2.11-10.53,3.31-15.7c-0.53,0.03-1.59,0.1-2.11,0.13c1.75-2.99,4.37-5.78,4.15-9.5
		c0.32-8.99-0.95-18.04-3.03-26.78C796.51,397.01,793.97,389.02,791.97,381.12z"/>
	<path fill="#EDDDC4" stroke="#EDDDC4" stroke-width="0.3" d="M58.37,379.48c1.2-2.61,3.46-4.41,5.84-5.87
		C62.65,375.91,60.81,378.07,58.37,379.48z"/>
	<path fill="#97886E" stroke="#97886E" stroke-width="0.3" d="M886.17,382.49c9.56-0.09,19.12,0.54,28.69,0.84
		c33.68,1.62,67.21,5.96,100.3,12.44c3.97,0.67,7.94,2.2,12.0101,1.27c-0.16,2.45,3.21,1.27,4.6499,1.96
		c-1.0099,0.17-3.0199,0.51-4.0299,0.68c-3.1901-0.48-6.39-1.21-9.6201-0.69c-0.86-0.86-2.1-0.96-3.21-1.08
		c-34.4-4.1-68.69-9.54-103.33-11.11c-6.26,0.06-12.5-0.5-18.75-0.41c-15.74-0.45-31.81-1.09-47.2,2.83
		c-10.47,2.4-20.91,5.03-31.58,6.42c-5.2599,0.66-10.62,2.53-15.93,1.3c-0.09-0.48-0.29-1.42-0.38-1.89
		c15.66-3.12,31.35-6.14,47.05-9.08C858.46,383.44,872.31,382.31,886.17,382.49z"/>
	<path fill="#F1E9DB" stroke="#F1E9DB" stroke-width="0.3" d="M285.12,388.11c0.33-2.85,2.92-5.11,5.8-4.91
		c8.99,0.2,17.84,2.41,26.16,5.77c19.72,7.9,37.2,20.3,54.14,32.92c13.43,9.82,26.32,20.37,39.77,30.18
		c-3.37,9.62-6.9,19.2-9.9,28.94c-1.01,3.92-2.58,9.66,1.87,12.06c4.63,3.62,10.12-0.83,15.15,0.66c4.96,1.03,8.18,5.14,11.62,8.47
		c3.47,3.53,8.52,5.01,13.39,4.64c6.45,0.15,11.27-5.73,17.8-5.15c8.15,0.06,15.66,4.41,20.45,10.88c3.06,4.3,8.08,7.77,13.6,6.17
		c4.76-0.32,7.65-4.51,8.44-8.85c12.97,5.07,26.04,10.06,39.65,13.19c5.44,1.61,11.18,1.94,16.58,3.74
		c-20.16,29.52-36.49,62.18-44.4,97.21c-1.53,6.22-3,12.45-4.58,18.66c-7.39,3.09-15.44,4.66-22.34,8.87
		c-4.08-0.65-8.19-0.24-12.26,0.1c-27.33,0.88-54.71,1.97-82.04,0.65c-37.43-0.59-74.8-3.17-112.06-6.63
		c-42.17-4.16-84.28-9.55-125.83-17.97c-15.2-3.2-30.38-6.76-45.05-11.91c-5.25-2-10.75-4.04-14.87-8.01
		c-2.14-1.81-1.84-5.67,0.78-6.87c6.19-3.82,13.6-4.96,20.64-6.34c44.52-6.3,89.6-5.49,134.44-6.03c-2.47-1.82-5.58-2.26-8.47-3.06
		c-14.67-3.74-29.25-7.94-43.26-13.71c-14.1-5.52-27.64-12.92-38.99-23c0.06-0.3,0.17-0.9,0.23-1.19
		c8.68-1.82,17.64-1.46,26.47-1.4901c9.65,0.12,19.31-0.15,28.94,0.51c12.68,0.36,25.36,0.37,38.03,0.68
		c10.29,0.83,20.62,0.35,30.93,0.5c8.28-0.15,16.86,0.37,24.89-1.97c-0.05-0.37-0.13-1.09-0.17-1.46
		c-7.66-4.29-16.4-5.91-24.74-8.35c-9.42-2.8-19.14-4.88-27.93-9.42c1.85-1.8,4.54-2.02,6.95-2.47c7.15-1.08,14.24-2.49,21.37-3.66
		c1.65-0.46,3.78-0.5,4.75-2.15c-1.99-0.83-4-1.71-6.14-2.01c-9.26-1.18-18.6-1.04-27.91-1.14c-4.56-0.17-9.63,0-13.34-3.1
		c3.04-2.58,7.01-3.45,10.72-4.6c10.35-3.19,21.01-5.3,31.24-8.86c1.36-0.68,3.96-1.31,3.1-3.32c-8.3-6.06-18.78-7.62-27.78-12.27
		c-1.92-0.77-3.95-3.26-2.23-5.17c6.36-8.27,17.49-10.29,25.16-16.96c1.52-1.19,2.58-3.35,1.32-5.12c-3.09-4.73-8.6-6.86-13.28-9.62
		c-4.08-2.5-9.35-3.66-11.97-8.01c2.78-1.74,6.75-1.71,8.83-4.38c1.43-4.69-2.67-10.03,0.51-14.4c2.98-3.34,7.79-3.21,11.82-4.14
		c2.31-0.31,4.05-2.31,4.52-4.52C287.05,403.17,284.07,395.63,285.12,388.11z"/>
	<path fill="#EDDDC4" stroke="#EDDDC4" stroke-width="0.3" d="M845.68,389.22c15.39-3.92,31.46-3.28,47.2-2.83
		c2.09,3.41-0.98,7.13,0.23,10.78c-1.34,0.91-2.71,1.79-4,2.76c1.62,2.32,3.81,4.13,5.95,5.97c-0.02,3.7,0,7.41-0.04,11.12
		c-1.79,0.37-3.57,0.69-5.34,1.12c0.3,1.89,2.32,2.42,3.72,3.31c1.71,4.65-2.97,7.53-4.08,11.6c-0.44,1.06-0.98,2.07-1.63,3.03
		c-0.08,1.69-0.11,3.39-0.14,5.1c1.6,0.63,3.22,1.23,4.87,1.79c0.13,1.37,0.26,2.75,0.41,4.13c-2.84,1.43-5.91,2.35-8.69,3.89
		c2.3,0.16,4.63-0.01,6.93-0.31c-0.44,3.74-1.64,7.45-5.18,9.32c0.8,0.99,1.68,1.95,2.38,3.05c-0.24,2.27-1.49,4.24-2.47,6.24
		c0.45,0.77,0.92,1.55,1.42,2.32c-4.14,2.96-8.03,6.48-10.7599,10.81c-1.65,2.26,1.37,4.04,2.54,5.7c-0.92,2.78-3.35,4.59-5.52,6.38
		c-0.32,0.11-0.97,0.33-1.29,0.44c-13.1-7.31-26.79-13.75-41.21-18.02c-5.35-1.52-10.79-2.9-16.36-3.24
		c0.88,3.15,3.98,4.65,6.72,5.91c15.15,6.73,31.5699,10.04,46.73,16.73l0.39,0.95c-2.06,0.12-4.11,0.09-6.16-0.02
		c-2.26,2.36-5.11,3.87-8.37,4.26c-4.3,0.52-7.07,4.41-7.38,8.53c2.81-2.35,4.86-5.69,8.34-7.18c5.06-2.18,10.7-1.07,16.03-1.78
		c0.49-0.53,1.48-1.57,1.98-2.1c24.5,15.2,47.96,32.03,70.97,49.39c-8.16,2.32-11.19,10.98-14.87,17.69
		c-2.51,4.07,0.26,8.66,0.73,12.91c0.68,3.45-2.33,6.21-5.09,7.65c-3.77,1.39-7.78-0.7-11.62,0.15c-2.75,0.55-5.68,2.03-6.41,4.97
		c-1.62,2.92,0.14,6.12,0.19,9.2c-2.25,4.87-8.87,4.75-11.92,8.9c-2.68,3.6-3.35,8.34-6.3,11.77c-5.06,5.12-12.42,8.05-19.64,6.97
		c-5.45-0.48-12.25-1.66-16.37,2.89c-2.32,4.15-0.37,9.0601-0.44,13.53c-13.94-0.18-27.68,2.67-41.28,5.37
		c-5.31,1.04-10.61,2.15-15.78,3.75c-4.83,1.33-7.93,5.81-12.69,7.33c-4.26,1.8-8.92-0.74-13.25,0.67c-1.3,1.15-1.07,3.13-1.51,4.68
		c-4.9,2.68-10.59-1.2-15.58,1.08c-8.23,4.14-11.92,13.78-20.11,17.93c-4.9,1.13-9.97,0.1-14.94,0.32c-3.33,0.22-5.91-2.26-8.66-3.7
		c0.84,4.97,0.97,10.02,1.78,15c-7.64-1.18-11.88-8.25-18.6-11.23c2.86,9.5,5.52,20.12,2.13,29.81c-7.85-5.67-13.87-13.4-20.58-20.3
		c-0.06,2.07,0.98,4.89-1.2,6.2599c-3.34,0.97-6.59-0.84-9.91-0.96c-3.09,0.25-6.55,1.55-9.24-0.69c-6.3-4.39-7.16-12.52-9.61-19.18
		c-6.53-12.77-20.78-17.58-32.31-24.52c-1.5-8.89-2.58-17.84-3.83-26.76c5.94-2.69,12.31-4.19,18.35-6.63
		c21.82-7.78,43.42-16.33,64.08-26.86c18.62-9.06,36.69-19.36,53.49-31.49c16.57-12.17,32.17-25.99,44.31-42.68
		c11.17-14.89,18.53-32.59,20.74-51.1c3.24-0.06,6.55,0.2,9.74-0.53c6.75-3.19,11.88-8.86,18.15-12.81c2.84-1.89,6.54-1.79,9.4-3.61
		c3.58-5.55,5.16-12.1,7.98-18.03c1.99-3.97,2.01-8.49,2.41-12.81c-1.67-1.94-4.59-3.39-4.54-6.28c-0.49-5.79,0.69-11.68-0.62-17.39
		c-0.65-3.26-3.05-5.68-4.95-8.26C845.55,390.65,845.61,389.94,845.68,389.22z"/>
	<path fill="#8A7A5E" stroke="#8A7A5E" stroke-width="0.3" d="M892.88,386.39c6.25-0.09,12.49,0.47,18.75,0.41
		c3.12,2.78,6.14,5.7,9.62,8.05c-0.17,3.42,0.07,6.85-0.12,10.27c-0.91,3.03-3.91,4.58-6.83,5.16c-4.22,7.29,3.14,14.08,3.4,21.35
		c-0.64,0.75-1.29,1.49-1.94,2.23c-1.81,0.04-3.6,0-5.39,0.01c1.17,2.44,0.41,4.92-0.95,7.1c2.1,0.16,4.23,0.22,6.35,0.35
		c0.07,1.15,0.13,2.3,0.2,3.45c-2.54,1.38-5.52,2.62-6.8,5.42c-1.19,3.1-0.56,6.5-0.91,9.74c-0.15,3.74-1.94,7.22-4.38,10
		c-1.55-0.37-3.11-0.71-4.66-0.94c-2.11,1.99-4.47,3.67-6.84,5.31c-2.38,1.15-1.63,4.26-2.93,6.15c-2.41,1.95-5.26,3.37-7.34,5.71
		c-1.03,1.56-1.03,3.56-1.73,5.27c-1.79,1.64-3.91,2.87-5.86,4.28c-0.26-0.3-0.78-0.91-1.04-1.21c2.17-1.79,4.6-3.6,5.52-6.38
		c-1.17-1.66-4.19-3.44-2.54-5.7c2.73-4.33,6.62-7.85,10.7599-10.81c-0.5-0.77-0.97-1.55-1.42-2.32c0.98-2,2.23-3.97,2.47-6.24
		c-0.7-1.1-1.58-2.06-2.38-3.05c3.54-1.87,4.74-5.58,5.18-9.32c-2.3,0.3-4.63,0.47-6.93,0.31c2.78-1.54,5.85-2.46,8.69-3.89
		c-0.15-1.38-0.28-2.76-0.41-4.13c-1.65-0.56-3.27-1.16-4.87-1.79c0.03-1.71,0.06-3.41,0.14-5.1c0.65-0.96,1.19-1.97,1.63-3.03
		c1.11-4.07,5.79-6.95,4.08-11.6c-1.4-0.89-3.42-1.42-3.72-3.31c1.77-0.43,3.55-0.75,5.34-1.12c0.04-3.71,0.02-7.42,0.04-11.12
		c-2.14-1.84-4.33-3.65-5.95-5.97c1.29-0.97,2.66-1.85,4-2.76C891.9,393.52,894.97,389.8,892.88,386.39z"/>
	<path opacity="0.51" fill="#534B3C" stroke="#534B3C" stroke-width="0.3" enable-background="new    " d="M1027.79,399.68
		c1.01-0.17,3.02-0.51,4.0299-0.68c2.3601,0.14,4.6001,1,6.8,1.85C1034.9399,401.21,1031.38,400.21,1027.79,399.68z"/>
	<path fill="#FFF7DF" stroke="#FFF7DF" stroke-width="0.3" d="M228.47,401.09c5.23-1.95,10.99-0.77,16.45-0.95
		c0.34,0.25,1.04,0.76,1.38,1.01C240.36,401.53,234.41,401.5,228.47,401.09z"/>
	<path fill="#DB9B7C" stroke="#DB9B7C" stroke-width="0.3" d="M671.64,409.61c4.62-3.46,10.44-6.07,16.33-5.06
		c7.63,1.04,15.41,1.83,23.09,0.81c3.72-0.7,8.08-2.55,11.43,0.22c5.14,5.33,8.12,12.29,10.91,19.05
		c2.44,5.96,5.38,11.92,5.81,18.45c0.36,7.1-2.15,13.91-2.71,20.94c-0.43,2.65-0.08,5.46-1.1,7.99l0.13-1.74
		c-13.02,7.03-27.44,13.12-42.53,12.14c-6.64-0.26-12.29-3.94-17.88-7.09c-4.79-5.77-10.29-13.83-6.1-21.41
		c3.05,7.55,10.2,12.37,17.32,15.66c2.5099,1.18,6.54,1.55,7.7-1.65c0.84-3.7,0.1-8.46-3.15-10.79c-5.98-0.96-13.1,1.63-18.05-2.94
		c-4.75-5.48-5.32-12.98-6.5-19.81C667.62,426.06,666.76,416.95,671.64,409.61 M715.39,457.26c-1.07,1.95,1.54,2.71,2.79,3.57
		c1.65,1.2,3.68,1.09,5.62,0.83c2.48-4.11,5.14-8.15,7.25-12.47C726.66,453.41,720.52,454.39,715.39,457.26z"/>
	<path fill="#060102" stroke="#060102" stroke-width="0.3" d="M89.87,413.57c3.98-0.66,7.91-1.61,11.68-3.05
		c0.2,0.37,0.59,1.12,0.79,1.49c4.14,1.71,9.41-1.08,13.26,1.45c-7.74,0.23-15.49-0.06-23.23,0.17
		C91.53,413.62,90.7,413.6,89.87,413.57z"/>
	<path fill="#FEEED5" stroke="#FEEED5" stroke-width="0.3" d="M92.37,413.63c7.74-0.23,15.49,0.06,23.23-0.17
		c-0.6,0.94-1.21,1.88-1.85,2.82c-3.13-2.2-7.12-1.15-10.68-1.32C99.51,414.71,95.44,415.98,92.37,413.63z"/>
	<path fill="#8A7A5E" stroke="#8A7A5E" stroke-width="0.3" d="M919.68,417.02c3.28,0.13,6.65,0.18,9.79,1.3
		c4.48,1.58,8.2401,4.58,12.01,7.37c2.05,1.56,4.33,2.96,5.77,5.17c3.16,4.7,6.26,9.44,9.44,14.13c-1.06,4.67-1.76,9.4-1.83,14.21
		c-1.93-0.08-3.89-0.1-5.63,0.77c1.19,4.04,2.25,8.11,3.49,12.13c0.33,2.02,2.78,1.62,4.25,2.1c2.04,0.25,2.77,2.58,3.39,4.24
		c1.49,4.61-2.54,8.91-1.29,13.51c1.31,2.57,3.97,3.99,6.11,5.8c5.63,4.42,9.34,11,15.73,14.52c-1.5699,0.05-2.86,0.6-3.8799,1.66
		c5.35,5.61,13.34,7.49,19.92,11.25c-2.26,1.01-4.72,0.04-7.02-0.2c-5.96-0.9-10.98-4.42-16.32-6.94c2.43,4.19,4.31,9.22,8.69,11.8
		c9.44,4.74,21.05,2.91,30.05,8.8c-9.83,0.59-19.46,2.91-29.29,3.51c2.44,2.2,6.37,4,6.33,7.8c-0.71,3.42-4.12,5.12-6.53,7.26
		c1.26,2.02,2.58,4.03,3.74,6.13c4.56,7.81,4.77,17.1,7.42,25.58c1.6,3.42-3.64,5.67-1.93,9c2.12,5.1,4.9,10.29,4.27,16.02
		c-0.12,5.2-3.78,9.36-7.72,12.32c4.45,5.3,10.88,8.77,14.58,14.72c2.5601,4.97-1.15,10.19-4.15,14c-2.27,1.27-4.98,1.56-7.13,3.09
		c0.18,1.2,0.33,2.41,0.46,3.64c-0.33,5.58,5.42,9.47,5.46,14.92c-3.31,4.9-9.18,6.49-14.12,9.15c-3.8,1.9-8.08,0.89-12.06,0.31
		c4.66,5.72,8.1,12.22,11.15,18.91c-8.3-0.53-16.52-2.32-24.86-1.99c-4.53,0.09-9.11,0.25-13.56-0.66
		c-7.12-1.2599-13.61-4.68-20.59-6.37c8.8,6.46,17.58,12.99,26.25,19.62c-4.61-1.59-9.33-2.73-14.08-3.79
		c-8.43-1.89-16.51-5.17-25.03-6.67c-3.2-0.28-6.87-0.79-9.68,1.11c-5.07,3.95-1.84,12.1-7.08,15.93
		c-5.32,3.97-12.23-0.87-17.84,2.11c-8.79,4.15-15.71,11.44-24.47,15.6c-17.89,2.66-34.83-9.52-52.78-4.94
		c-1.7,1.7-2.66,4.59-5.01,5.33c-8.69-0.1201-16.88-5.16-25.67-3.6801c-6.51,2.2401-11.6,7.6801-18.4,9.27
		c-7.61,0.62-11.86-7.05-18.3101-9.67c-6.62-4.13-14.84-3.56-21.77-0.56c-6.67,2.96-14.51,1.79-20.18-2.73
		c-3.49,3.92-6.5,8.84-5.74,14.31c-4.01-6.53-4.97-14.58-9.23-21.03c-3.92-5.68-9.31-10.16-15.05-13.89
		c-0.99,4.93-2.05,9.85-2.91,14.81c-0.31,1.04-0.19,2.47-1.3,3.08c-8.9-27.01-24.77-51.48-44.45-71.88
		c-0.08-0.42-0.23-1.27-0.3-1.69c11.53,6.94,25.78,11.75,32.31,24.52c2.45,6.66,3.31,14.79,9.61,19.18
		c2.69,2.24,6.15,0.94,9.24,0.69c3.32,0.12,6.57,1.93,9.91,0.96c2.18-1.37,1.14-4.1899,1.2-6.2599c6.71,6.9,12.73,14.63,20.58,20.3
		c3.39-9.69,0.73-20.31-2.13-29.81c6.72,2.98,10.96,10.05,18.6,11.23c-0.81-4.98-0.94-10.03-1.78-15c2.75,1.44,5.33,3.92,8.66,3.7
		c4.97-0.22,10.04,0.81,14.94-0.32c8.19-4.15,11.88-13.79,20.11-17.93c4.9901-2.28,10.68,1.6,15.58-1.08
		c0.44-1.55,0.21-3.53,1.51-4.68c4.33-1.41,8.99,1.13,13.25-0.67c4.76-1.52,7.86-6,12.69-7.33c5.17-1.6,10.47-2.71,15.78-3.75
		c13.6-2.7,27.34-5.55,41.28-5.37c0.07-4.47-1.88-9.38,0.44-13.53c4.12-4.55,10.92-3.37,16.37-2.89c7.22,1.08,14.58-1.85,19.64-6.97
		c2.95-3.43,3.62-8.17,6.3-11.77c3.05-4.15,9.67-4.03,11.92-8.9c-0.05-3.08-1.81-6.28-0.19-9.2c0.73-2.94,3.66-4.42,6.41-4.97
		c3.84-0.85,7.85,1.24,11.62-0.15c2.76-1.44,5.77-4.2,5.09-7.65c-0.47-4.25-3.24-8.84-0.73-12.91c3.68-6.71,6.71-15.37,14.87-17.69
		c8.66,6.57,17.1,13.43,25.36,20.5c2.09,1.89,4.09,3.96,6.65,5.26c-3.41-4.89-8.4-8.26-12.57-12.42
		c-4.87-5.03-10.49-9.22-15.56-14.04c3.37-2.45,0.8-6.37,1.18-9.65c0.38-3.56,0.28-7.14,0.32-10.7c3.9-2.09,9.58-4.91,8.64-10.25
		c-1.85-5.06-7.65-6.78-12.27-8.37c2.01-3.92,4.04-8.18,3.28-12.72c-0.88-6.88-6.96-11.46-8.86-17.91
		c-1.35-4.83,4.13-7.63,4.01-12.29c-3.16-0.72-6.99-0.87-9-3.78c-0.98-5.81,4.91-9.47,8.4-13.17c-3.94-1.89-8.37-1.94-12.64-1.9
		c0.72-2.17,1.04-4.51-0.61-6.37c2.02-1.44,4.13-2.74,6.21-4.09c-1.47-1.87-1.81-4.24-2.2599-6.5c-4.87,0.44-9.78,0.74-14.65,0.21
		c2.16-2.25,5.25-4.52,5.09-8C924.47,419.42,921.54,418.44,919.68,417.02z"/>
	<path fill="#FFF4DB" stroke="#FFF4DB" stroke-width="0.3" d="M138.97,434.28c1.72,0.21,3.45,0.4,5.17,0.63
		c0.18,2.72,0.38,5.45,0.62,8.17c-2.32-1.42-1.49-4.4-1.9-6.66C141.47,435.86,139.9,435.56,138.97,434.28z"/>
	<path fill="#8F390F" stroke="#8F390F" stroke-width="0.3" d="M666.34,434.38c1.18,6.83,1.75,14.33,6.5,19.81
		c4.95,4.57,12.0699,1.98,18.05,2.94c3.25,2.33,3.99,7.09,3.15,10.79c-1.16,3.2-5.19,2.83-7.7,1.65
		c-7.1201-3.29-14.27-8.11-17.32-15.66C667.24,447.59,665.68,440.99,666.34,434.38z"/>
	<path fill="#8F390F" stroke="#8F390F" stroke-width="0.3" d="M715.39,457.26c5.13-2.87,11.27-3.85,15.66-8.07
		c-2.11,4.32-4.77,8.36-7.25,12.47c-1.94,0.26-3.97,0.37-5.62-0.83C716.93,459.97,714.32,459.21,715.39,457.26z"/>
	<path fill="#8D7D61" stroke="#8D7D61" stroke-width="0.3" d="M595.29,457.33c1.54-1.5,4.25,1.06,2.67,2.64
		C596.31,461.81,593.16,459.05,595.29,457.33z"/>
	<path fill="#211500" stroke="#211500" stroke-width="0.3" d="M130.42,458.98c3.02-1.13,7.45-2.02,9.94,0.48
		C137.04,459.54,133.71,459.42,130.42,458.98z"/>
	<path fill="#7F7159" stroke="#7F7159" stroke-width="0.3" d="M577.38,460.39c1.62-1.77,4.57,0.94,2.64,2.44
		C578.61,464.53,575.7,461.96,577.38,460.39z"/>
	<path fill="#7F7159" stroke="#7F7159" stroke-width="0.3" d="M617.42,470.41c1.42-1.5,4.35,1.36,2.36,2.59
		C618.24,474.77,615.06,471.84,617.42,470.41z"/>
	<path fill="#AA6945" stroke="#AA6945" stroke-width="0.3" d="M693,482.41c15.09,0.98,29.51-5.11,42.53-12.14l-0.13,1.74
		c-0.89,2.04-1.85,4.06-2.73,6.11c-3.16,6.46-6.87,12.69-11.77,17.99c-3.6801,0.5-7.4901,0.37-11,1.74c-4,1.23-8.15,3.54-12.42,2.29
		l-1.13-0.27c-11.72-6.34-20.74-16.52-29.18-26.6c2.74,0.25,5.41,0.98,7.95,2.05C680.71,478.47,686.36,482.15,693,482.41z"/>
	<path fill="#74633E" stroke="#74633E" stroke-width="0.3" d="M601.42,472.58c1.75-1.16,3.54,1.75,1.8,2.82
		C601.38,476.85,598.99,473.46,601.42,472.58z"/>
	<path fill="#8C7C60" stroke="#8C7C60" stroke-width="0.3" d="M585.29,474.24c2-0.71,4.27,1.8,2.69,3.61
		c-0.97,0.52-2.12,1.2-3.14,0.41C582.72,477.71,583.35,474.54,585.29,474.24z"/>
	<path fill="#98896F" stroke="#98896F" stroke-width="0.3" d="M814.62,473.68c5.57,0.34,11.01,1.72,16.36,3.24
		c14.42,4.27,28.11,10.71,41.21,18.02c0.32-0.11,0.97-0.33,1.29-0.44c0.26,0.3,0.78,0.91,1.04,1.21c1.52,1.47,3.48,2.36,5.29,3.44
		c24.06,14.07,46.61,30.62,67.94,48.52c5.07,4.82,10.69,9.01,15.56,14.04c4.17,4.16,9.16,7.53,12.57,12.42
		c-2.56-1.3-4.56-3.37-6.65-5.26c-8.26-7.07-16.7-13.93-25.36-20.5c-23.01-17.36-46.47-34.19-70.97-49.39
		c-1.42-0.76-2.87-1.42-4.44-1.71l-0.39-0.95c-15.16-6.69-31.58-10-46.73-16.73C818.6,478.33,815.5,476.83,814.62,473.68z"/>
	<path fill="#86765A" stroke="#86765A" stroke-width="0.3" d="M600.24,482.35c1.66-1.55,4.55,0.89,2.68,2.6
		C601.27,486.36,598.45,484.04,600.24,482.35z"/>
	<path fill="#7F7159" stroke="#7F7159" stroke-width="0.3" d="M569.39,483.5c1.42-2.56,5.2,0.89,2.71,2.28
		C570.68,487.19,568.27,485.05,569.39,483.5z"/>
	<path fill="#74633E" stroke="#74633E" stroke-width="0.3" d="M591.32,494.37c1.73-1,3.53,1.81,1.74,2.78
		C591.26,498.83,588.76,495.12,591.32,494.37z"/>
	<path fill="#7F7159" stroke="#7F7159" stroke-width="0.3" d="M615.34,494.44c1.46-1.34,4.31,1.19,2.5,2.53
		C616.32,498.92,613.01,496,615.34,494.44z"/>
	<path fill="#B7987E" stroke="#B7987E" stroke-width="0.3" d="M709.9,497.85c3.5099-1.37,7.3199-1.24,11-1.74
		c0.31,4.63,0.06,9.27,0.47,13.9c0.39,6.82,1.19,14.39-3.08,20.27c-4.94,7.14-11.99,14.27-21.13,14.95
		c-2.8799-1.45-4.71-4.12-5.6299-7.14c-0.77-6.97,0.6899-14.22,4.65-20.07c1.11-1.88,2.87-3.63,2.8-5.96
		c-0.01-4.02-1.13-7.93-1.5-11.92C701.75,501.39,705.9,499.08,709.9,497.85z"/>
	<path fill="#8D7D61" stroke="#8D7D61" stroke-width="0.3" d="M862.3,497.25c2.05,0.11,4.1,0.14,6.16,0.02
		c1.57,0.29,3.02,0.95,4.44,1.71c-0.5,0.53-1.4901,1.57-1.98,2.1c-5.33,0.71-10.97-0.4-16.03,1.78c-3.48,1.49-5.53,4.83-8.34,7.18
		c0.31-4.12,3.08-8.01,7.38-8.53C857.19,501.12,860.04,499.61,862.3,497.25z"/>
	<path fill="#F1E9DB" stroke="#F1E9DB" stroke-width="0.3" d="M648.94,519.83c16.35-5.16,32.69-11.05,47.41-19.96l1.13,0.27
		c0.37,3.99,1.49,7.9,1.5,11.92c0.07,2.33-1.69,4.08-2.8,5.96c-3.96,5.85-5.42,13.1-4.65,20.07c-3.79,4.72-8.38,8.86-13.77,11.66
		c-7.95,4.37-17.03,5.84-25.9,6.99c-16.46,2.47-33.14,4.3-49.78,2.92c-0.94-0.22-1.87-0.45-2.79-0.7c0.7-8.95,1.29-17.91,1.87-26.86
		c0.26-1.31,0.59-2.61,0.92-3.89C617.98,527.41,633.67,524.22,648.94,519.83z"/>
	<path fill="#BFAC93" stroke="#BFAC93" stroke-width="0.3" d="M574.07,508c1.99-2.29,3.8-4.81,6.35-6.52
		c-4.75,8.66-10.74,16.61-15.71,25.16c-22.2,35.4-38.64,74.29-49.85,114.5c-3.68,13.63-6.76,27.44-8.76,41.42
		c-1.23,8.46-1.96,16.99-2.57,25.52c-0.18,1.68-0.38,3.36-0.5,5.07c-0.5,9.4-0.73,18.9,0.72,28.24c0.05,0.62,0.16,1.88,0.21,2.5
		v1.18c0.05,0.48,0.14,1.43,0.18,1.91c0.58,3.11,0.92,6.26,1.45,9.39c1.32,9.28,3.12,18.49,4.11,27.81
		c-4.08-12.78-6.49-26.06-8.72-39.27c-2.95-19.22-3-38.85,0-58.06c2.4-14.9,6.17-29.5099,9.68-44.16
		c1.58-6.21,3.05-12.44,4.58-18.66c7.91-35.03,24.24-67.69,44.4-97.21C564.17,520.33,568.92,514,574.07,508z"/>
	<path fill="#FEF0D7" stroke="#FEF0D7" stroke-width="0.3" d="M149.96,506.53c1.63-0.53,3.32-0.9,5.05-0.79
		c12.02,0.58,24.06,0.48,36.09,0.38c-1.38,1.25-3.42,0.71-5.11,0.89C173.98,506.9,161.95,507.27,149.96,506.53z"/>
	<path fill="#BFAC93" stroke="#BFAC93" stroke-width="0.3" d="M595.04,509.75c2.92,0.05,6.08,1.29,6.63,4.51
		c0.99,5.88-0.45,11.9-0.51,17.84c-0.58,8.95-1.17,17.91-1.87,26.86c0.92,0.25,1.85,0.48,2.79,0.7c-0.73,0.08-2.19,0.23-2.93,0.31
		c-0.72,7.41-0.29,14.8,1.14,22.1c2.21,15.93,4.48,31.86,6.67,47.79c1.25,8.92,2.33,17.87,3.83,26.76c0.07,0.42,0.22,1.27,0.3,1.69
		c1.4,10.9,4.92,21.39,7.04,32.12c-1.95-2.51-2.88-5.58-3.95-8.52c-3.43-9.68-6.72-19.56-7.62-29.85c-0.73-7.07-1.48-14.14-2.3-21.2
		c-1.65-16.31-3.32-32.64-5.82-48.85c-0.54-4.1-1.39-8.15-2.69-12.08c-0.35,0.09-1.04,0.27-1.39,0.36c-1.07,3.46-1.36,7.1-1.66,10.7
		c1.14,0.29,2.28,0.56,3.44,0.81c-0.86-0.05-2.58-0.15-3.43-0.19c-0.94,3.68-1.73,7.42-1.98,11.23
		c-0.98,13.99-3.47,28.1299-0.86,42.1c0.86,5.54,2.28,10.97,3.78,16.37c0.68,2.39,1.31,4.87,2.81,6.91
		c0.34,3.63,2.03,6.92,3.18,10.34c2.66,6.98,4.94,14.16,8.47,20.77c0.91,3.7,2.97,6.97,3.98,10.64c-1.08-1.5699-2.11-3.16-3.13-4.75
		c-2.56-5.98-5.83-11.62-8.42-17.59c-3.11-6.9-5.54-14.07-7.92-21.25c-1.83-6.99-3.6-14.02-4.61-21.18
		c-2.71-17.93-1.84-36.26,1.61-54.02c-1.23-0.33-2.44-0.64-3.66-0.92c1.28,0.07,2.56,0.14,3.85,0.2c1.09-7.12,2.35-14.21,2.93-21.4
		c0.79-10.26,0.39-20.56,0.79-30.84C593.83,522.05,594.26,515.88,595.04,509.75z"/>
	<path fill="#F1E9DB" stroke="#F1E9DB" stroke-width="0.3" d="M514.86,641.14c11.21-40.21,27.65-79.1,49.85-114.5
		c4.02,0.97,8.14,1.42,12.28,1.56c5.5,0.19,11.07,1.18,16.54,0.02c-0.4,10.28,0,20.58-0.79,30.84c-8.94-0.32-18.06-0.98-26.84,1.16
		c-4.46,1.04-8.6801,3.4901-11.25,7.3701c9.33,6.52,20.17,10.5699,31.31,12.67c1.22,0.28,2.43,0.59,3.66,0.92
		c-3.45,17.76-4.32,36.09-1.61,54.02c-11.11,3.44-22.43,6.24-33.91,8.12c-1.89,0.25-3.62,1.05-5.2,2.06
		c-0.4901-1.29-0.92-2.61-1.4901-3.84c-2.1-1.2599-4.59-1.54-6.97-1.77C531.92,639.12,523.03,637.83,514.86,641.14z"/>
	<path fill="#946A4D" stroke="#946A4D" stroke-width="0.3" d="M677.76,549.75c5.39-2.8,9.98-6.94,13.77-11.66
		c0.92,3.02,2.75,5.69,5.6299,7.14c-5.8199,13.88-15.25,27.31-29.48,33.44c-10.2,4.82-21.69,3.87-32.63,4.14
		c-11.59,0.23-23.2,0.29-34.76-0.74c-1.43-7.3-1.86-14.69-1.14-22.1c0.74-0.08,2.2-0.23,2.93-0.31c16.64,1.38,33.32-0.45,49.78-2.92
		C660.73,555.59,669.81,554.12,677.76,549.75z"/>
	<path fill="#946A4D" stroke="#946A4D" stroke-width="0.3" d="M565.9,560.22c8.78-2.14,17.9-1.48,26.84-1.16
		c-0.58,7.19-1.84,14.28-2.93,21.4c-1.29-0.06-2.57-0.13-3.85-0.2c-11.14-2.1-21.98-6.15-31.31-12.67
		C557.22,563.71,561.44,561.26,565.9,560.22z"/>
	<path fill="#946A4E" stroke="#946A4E" stroke-width="0.3" d="M594.36,570.29c0.35-0.09,1.04-0.27,1.39-0.36
		c1.3,3.93,2.15,7.98,2.69,12.08c-0.57-0.05-1.72-0.15-2.3-0.21c-1.16-0.25-2.3-0.52-3.44-0.81
		C593,577.39,593.29,573.75,594.36,570.29z"/>
	<path fill="#F1E9DB" stroke="#F1E9DB" stroke-width="0.3" d="M590.73,592.84c0.25-3.81,1.04-7.55,1.98-11.23
		c0.85,0.04,2.57,0.14,3.43,0.19c0.58,0.06,1.73,0.16,2.3,0.21c2.5,16.21,4.17,32.54,5.82,48.85c-4.95,0.78-9.7,2.38-14.39,4.08
		C587.26,620.97,589.75,606.83,590.73,592.84z"/>
	<path fill="#9F9073" stroke="#9F9073" stroke-width="0.3" d="M19.17,631.73c1.62-0.03,3.65,1.23,4.95-0.16
		c3.78,1.41,8,0.68,11.96,1.18c14.43,0.3,28.92,1.68,42.97,5.04c5.72,3.15,10.62,7.61,16.32,10.8c4.83,2.72,10.78,0.7599,15.7,3.28
		c4.46,1.65,5.71,7.22,10.23,8.8c6.04,3.42,13,4.05,19.76,4.84c-8.39,0.84-16.82,0.06-25.22,0.13c5.28,3.47,11.94,4.93,18.27,5.51
		c2.07,0.09,2.74,2.45,3.96,3.77c19.84,1.64,39.74-0.05,59.61,0.15c-6.91,4.93-15.62,4.7-23.67,5.65
		c-3.6,0.35-7.21-0.0099-10.81-0.1c0.79,1.35,2.23,1.98,3.73,1.98c9.39,0.62,18.78,1.2,28.17,1.8c12.7,1.02,25.5,0.77,38.18,1.99
		c-8.86,3.24-17.9,5.98-26.71,9.27c13.78,0.48,27.53,2.41,41.35,1.6c3.13-0.45,5.18-3.75,8.52-3.6c11.04-0.59,22.06-1.36,33.11-1.83
		c-4.19,3.45-8.6,6.71-13.57,8.96c12.65-2.34,24.48-7.89,37.14-10.24c1.34,1.37,2.11,3.11,2.61,4.95
		c5.71,1.06,11.51-0.86,17.23,0.29c12.78,2.25,26.1,2.79,38.31,7.36c-12.1,2.5099-24.3,5.27-35.53,10.5699
		c-13.07,6.13-24.49,15.16-37.37,21.61c-5.97,3.12-12.71,4.17-19.37,4.19c-11.43,0.22-21.99,5.25-31.62,10.97
		c-12.43,5.1-25.2,9.39-37.78,14.12c-9.65,3.27-19.38,6.88-29.64,7.5c-4.11,0.37-7.94,2.32-12.13,2c-0.8-2.44,0.24-4.92,0.58-7.33
		c-1.36-0.28-3.49,0.65-4.21-1.02c-1.46-1.9-2.07-5.92-5.32-4.64c-5.66,0.02-9.36,5.19-14.82,5.8c-9.31,1.56-18.67,3.08-27.84,5.33
		c-11.94,7.81-20.87,19.31-32.57,27.48c-8.73,6.47-18.66,11.04-28.65,15.19c-0.46,1.93,1,5.25-1.05,6.26
		c-0.01-2.02,0.51-4.15-0.18-6.09c-1.58,0.65-3.16,1.3199-4.77,1.89c1.7-8.8,5.21-17.06,8.91-25.15c1.17,0.03,3.21-2.34,1.43-2.74
		c-0.35,0.17-1.03,0.5099-1.38,0.68c-3.65,1.57-7.6,2.84-10.54,5.65c-2.62,2.33-4.31,5.45-5.98,8.47c1.18-6.23,2.5-12.44,3.73-18.66
		c-1.01-1.69-2-3.38-2.99-5.07l-0.75,0.52c0.09-0.3,0.28-0.91,0.37-1.21c-0.74-1.2-1.49-2.39-2.24-3.5699
		c1.01-2.91,3.19-5.05,5.24-7.23c0.71-1.83,0.26-3.88,0.38-5.79c-2.34-2.02-4.88-3.78-7.33-5.65c0.63-1.94,2.36-4,1.09-6.03
		c-2.99-2.13-6.92-1.51-10.37-1.94c-2.74-0.31-6.07-0.4-7.91-2.79c-1.27-2.66-0.34-6.08,1.77-8.06c5.41-5.9,11.17-11.46,16.65-17.29
		c2.27-2.17,4.48-4.42,6.28-7c-1.53-0.66-3.07-1.3-4.61-1.91c-0.16,0.4-0.47,1.2-0.63,1.6l0.07-1.43
		c-6.31-1.72-13.51,0.88-19.3-2.86c-0.59-0.94-1.19-1.85-1.81-2.75c6.31-1.05,12.08-5.07,15.03-10.77c2-3.78,1.82-8.86-1.19-12.07
		c-3.38-4.02-8.64-5.35-13.29-7.28l0.45-0.6c7.73-5.17,14.93-11.13,21.25-17.96c-3.69-0.92-7.41-1.6801-11.17-2.19
		c-0.22,0.2-0.66,0.59-0.87,0.78l0.4-0.83c-1.66-0.53-3.31-1.04-4.95-1.62c3.25-1.19,6.28-2.87,9.06-4.91
		c3.45-2.17,6.82-4.48,10.63-5.96c-1.23-0.8-2.52-1.52-3.89-2.03c-1.11-0.39-2.23-0.73-3.35-1.07c-4.67-2.04-9.56-3.59-14.07-6.02
		C21.78,633.44,20.48,632.57,19.17,631.73z"/>
	<path fill="#FFF2D9" stroke="#FFF2D9" stroke-width="0.3" d="M23.12,634.24c4.51,2.43,9.4,3.98,14.07,6.02
		C32.3,640.17,24.36,640.37,23.12,634.24z"/>
	<path fill="#EDDDC4" stroke="#EDDDC4" stroke-width="0.3" d="M554.1,643.32c11.48-1.88,22.8-4.68,33.91-8.12
		c1.01,7.16,2.78,14.19,4.61,21.18c-3.88-0.86-7.62-2.61-11.64-2.67c-8.89,0.18-18.09-0.51-26.54,2.79
		c-4.89,1.46-8.61,5.06-12.78,7.8c2.34-6.34,5.01-12.54,7.2401-18.92C550.48,644.37,552.21,643.57,554.1,643.32z"/>
	<path fill="#7F7159" stroke="#7F7159" stroke-width="0.3" d="M514.86,641.14c8.17-3.31,17.06-2.02,25.58-1.37
		c2.38,0.23,4.87,0.51,6.97,1.77c0.57,1.23,1,2.55,1.4901,3.84c-2.23,6.38-4.9,12.58-7.2401,18.92
		c-6.83,3.77-14.25,6.34-21.04,10.22c-5.02,2.34-9.57,5.56-14.52,8.04C508.1,668.58,511.18,654.77,514.86,641.14z"/>
	<path fill="#FFF2D9" stroke="#FFF2D9" stroke-width="0.3" d="M33.8,649.32c2.05-2.83,4.25-5.54,6.74-7.99
		c1.37,0.51,2.66,1.23,3.89,2.03C40.62,644.84,37.25,647.15,33.8,649.32z"/>
	<path fill="#7F7159" stroke="#7F7159" stroke-width="0.3" d="M488.32,651.56c6.9-4.21,14.95-5.78,22.34-8.87
		c-3.51,14.65-7.28,29.26-9.68,44.16c-6.83,5.31-11.2,12.91-16.73,19.4301c-3.09,3.3199-3.6,9.23,0.11,12.29
		c2.31,1.92,5.1,0.25,7.47-0.54c-2.42,4.33-6.11,8.7-5.73,13.9399c2.38,6.51,8.11,11.41,14.88,12.94
		c2.23,13.21,4.64,26.4901,8.72,39.27c-0.99-9.32-2.79-18.53-4.11-27.81c5.45,1.97,9.4,6.62,14.44,9.32
		c4.84,1.21,9.89,0.89,14.83,1.34c-2.21,2.75-4.49,5.48-6,8.71c1.23,0.81,2.48,1.62,3.79,2.33c-4.13,4.75-8.9901,9.08-11.64,14.92
		c-2.85,6.26-2.72,13.29-2.96,20.03c-0.12,6.42-1.18,12.8-2.9,18.98c-3.07,12.49-2.11,25.48-3.79,38.16
		c-0.46,2.55-0.58,5.33-2.22,7.4901c-0.11-3.58,1.5-7.07,0.86-10.63c-2.12-3.87-4.71-7.5-6.45-11.58
		c-2.93-5.69-5.22-12.02-9.84-16.57c-1.68,7.75-3.24,15.54-5.24,23.23c-0.29,1.64-1.53,2.8-2.52,4.07
		c-4.92-7.55-7.86-16.24-8.5-25.23c-0.75,9.03-1.72,18.04-3.21,26.97c-1.28-4.91-0.95-10.02-1.33-15.03
		c-0.16-4.89-3.21-9.19-6.82-12.25c-3.68,4.83-7.78,9.36-10.97,14.56c-1.55,2.33-0.63,5.43-2.06,7.84
		c-0.65,2.11-3.33,1.8799-4.63,3.37c-7.16,9.53-13.08,20.04-21.26,28.79c-8.66,8.61-16.61,18-25.84,26.01
		c1.42-2.67,3.52-5.1,3.85-8.21c2-12.5,0.67-25.34,3.17-37.78c1.28-7.39,6.44-13.18,11.03-18.78c1.46-2,4.13-3.65,3.82-6.43
		c0.04-3.33-0.79-6.61-0.57-9.94c0.9-5.76,5.52-10.2,6.2-16.03c0.44-4.69,0.64-9.4,1.43-14.05c0.26-0.97,0.54-1.93,0.85-2.87
		c7.76-1.33,16.1-2.43,22.45-7.52c2.83-2.46,5.42-5.39,6.96-8.84c0.02-2.44-1.43-4.77-1.04-7.18c3.2-2.46,6.82-4.62,8.91-8.22
		c5.38-8.03,5.04-18.04,6.17-27.24c0.96-6.31,3.71-13.48-0.3-19.31c-8.19-12.01-21.59-18.62-33.36-26.48
		c-0.14-0.86-0.41-2.58-0.55-3.43c8.8-9.77,19.14-17.91,28.96-26.58c6.98-6.27,13.94-12.55,20.57-19.19
		c-0.91-0.01-2.72-0.03-3.62-0.04C486.77,652.7,487.8,651.94,488.32,651.56z"/>
	<path fill="#B18A6A" stroke="#B18A6A" stroke-width="0.3" d="M554.44,656.5c8.45-3.3,17.65-2.61,26.54-2.79
		c4.02,0.06,7.76,1.81,11.64,2.67c2.38,7.18,4.81,14.35,7.92,21.25c2.59,5.97,5.86,11.61,8.42,17.59
		c0.68,10.57,1.28,21.15,1.14,31.75c-0.29,8.8101-0.42,17.76-2.77,26.33c-0.84,2.8-1.97,5.86-4.6,7.47
		c-4.37,3.02-9.82,3.43-14.64,5.38c-9.85,4.39-19.45,9.36-29.42,13.45c-8.65,0.46-17.7,1.57-26.02-1.53
		c-1.31-0.71-2.56-1.52-3.79-2.33c1.51-3.23,3.79-5.96,6-8.71c-4.94-0.45-9.99-0.13-14.83-1.34c-5.04-2.7-8.99-7.35-14.44-9.32
		c-0.53-3.13-0.87-6.28-1.45-9.39c2.63,1.16,2.29-3.41-0.18-1.91v-1.18c3.31-1.87,6.89-3.16,10.37-4.66
		c11.77-5.16,23.27-10.96,35.28-15.56c6.03-1.94,11.81-4.6,17.25-7.82c1.77-1.09,3.65-2.37,4.09-4.54
		c-1.93-0.66-3.97-1.19-5.95-0.43c-15.27,3.95-30.33,9.23-44.07,17.06c-6.42,3.54-11.86,8.48-17.18,13.45
		c-1.45-9.34-1.22-18.84-0.72-28.24c10.06-4.89,18.87-12.47,29.87-15.29c7.35-2.35,14.29-5.95,20.62-10.34
		c2.43-1.99,5.8-4,5.72-7.57c-4.88-3.2-10.13,0.39-14.6,2.52c-14.3,7.5-28.24,15.83-41.11,25.61c0.61-8.53,1.34-17.06,2.57-25.52
		c4.95-2.48,9.5-5.7,14.52-8.04c6.79-3.88,14.21-6.45,21.04-10.22C545.83,661.56,549.55,657.96,554.44,656.5 M536.82,768.77
		c-1.85,0.69-2.01,2.82-2.15,4.51c6.11,0.35,11.12-3.66,16.19-6.45c5.25-2.83,10.25-6.37,16.12-7.81c6.49-1.88,13.5-0.94,19.88-3.27
		c5.94-2.28,9.63-7.97,11.98-13.61c-4.4901-2.29-9.96-1.92-14.78-1.12C568.05,749.8,552.97,760.22,536.82,768.77z"/>
	<path fill="#EDDDC4" stroke="#EDDDC4" stroke-width="0.3" d="M30.16,655.9c3.76,0.5099,7.48,1.27,11.17,2.19
		c-6.32,6.83-13.52,12.79-21.25,17.96c4.01-5.98,5.85-13.05,9.21-19.37C29.5,656.49,29.94,656.1,30.16,655.9z"/>
	<path fill="#AF7C5B" stroke="#AF7C5B" stroke-width="0.3" d="M599.64,668.56c-1.15-3.42-2.84-6.71-3.18-10.34
		c4.1,2.86,4.65,8.07,5.87,12.51c1.59,6.3,5,12.08,5.78,18.6C604.58,682.72,602.3,675.54,599.64,668.56z"/>
	<path fill="#EDDDC4" stroke="#EDDDC4" stroke-width="0.3" d="M0,689.96c7.22-3.2,15.07-6.47,19.63-13.31
		c4.65,1.93,9.91,3.2599,13.29,7.28c3.01,3.21,3.19,8.29,1.19,12.07c-2.95,5.7-8.72,9.72-15.03,10.77c0.62,0.9,1.22,1.81,1.81,2.75
		c-2.72,0.49-5.45,0.93-8.19,1.32c3.23-4.32,7.46-9.58,5.51-15.33c-2.46-4.71-8.37-5.22-13.08-5.7c-1.65,0.19-3.86-0.6-5.13,0.76
		V689.96z"/>
	<path fill="#C59B82" stroke="#C59B82" stroke-width="0.3" d="M392.59,688.64c5.83-4.72,12.98-11.66,21.11-8.33
		c10.78,5,17.4,15.58,27.2,22.01c11.77,7.86,25.17,14.47,33.36,26.48c4.01,5.83,1.26,13,0.3,19.31c-1.13,9.2-0.79,19.21-6.17,27.24
		c-2.09,3.6-5.71,5.76-8.91,8.22c-0.39,2.41,1.06,4.74,1.04,7.18c-1.54,3.45-4.13,6.38-6.96,8.84c-6.35,5.09-14.69,6.19-22.45,7.52
		c-0.31,0.94-0.59,1.9-0.85,2.87c0.04-0.75,0.13-2.25,0.17-2.99c-10.7,1.34-21.6,1.93-32.33,0.75c-10.37-3.39-20.53-7.72-31.39-9.38
		c-2.15-5.68-5.86-11.08-5.75-17.37c-0.7-15.12-0.31-30.49,3.84-45.14C369.64,718.02,379.4,701.55,392.59,688.64 M401.06,697.22
		c-0.84,3.22-1.54,6.46-2.22,9.72c23.65,8.88,46.62,20.11,67.13,34.94c2.55,1.49,4.22,4.23,7,5.32c-3.4-7.23-9.29-12.8-14.73-18.5
		c-8.23-7.87-17.04-15.2-26.63-21.36C422.45,701.72,412.21,695.95,401.06,697.22 M395.74,735.3c1.17,4.54,3.58,8.7,6.62,12.24
		c9.67,10.77,23.44,16.45,36.6,21.72c5.05,2.24,10.59,2.87,16.02,3.5c2.4,0.01,6.12-1.79,4.75-4.7c-2.15-3.85-6.49-5.59-10.18-7.6
		C431.57,752.26,411.65,747.53,395.74,735.3 M378.27,770.26c-1.03,1.42-2.71,2.9-2.22,4.87c0.7,3.9,3.94,6.62,6.81,9.05
		c6.73,5.29,14.36,9.32,22.13,12.84c5.57,2.53,11.82,1.94,17.76,2.44c3.85,0.31,7.7,1.41,11.59,0.99c2.13-0.4,4.88-1.89,4.55-4.44
		c-0.09-2.14-2.59-2.95-4.27-3.57c-7.29-1.84-14.88,0.44-22.21-0.89C399.69,786.74,391.28,774.51,378.27,770.26z"/>
	<path fill="#945E32" stroke="#945E32" stroke-width="0.3" d="M544.64,682.47c4.47-2.1299,9.72-5.72,14.6-2.52
		c0.08,3.57-3.29,5.58-5.72,7.57c-6.33,4.39-13.27,7.99-20.62,10.34c-11,2.82-19.81,10.4-29.87,15.29c0.12-1.71,0.32-3.39,0.5-5.07
		C516.4,698.3,530.34,689.97,544.64,682.47z"/>
	<path fill="#B18A6A" stroke="#B18A6A" stroke-width="0.3" d="M484.25,706.28c5.53-6.52,9.9-14.1201,16.73-19.4301
		c-3,19.21-2.95,38.84,0,58.06c-6.77-1.53-12.5-6.43-14.88-12.94c-0.38-5.24,3.31-9.61,5.73-13.9399c-2.37,0.79-5.16,2.46-7.47,0.54
		C480.65,715.51,481.16,709.6,484.25,706.28z"/>
	<path fill="#CDBDA3" stroke="#CDBDA3" stroke-width="0.3" d="M315.16,689.41c1.15-0.84,2.31-0.92,3.5-0.24
		C318.99,691.06,314.05,691.71,315.16,689.41z"/>
	<path fill="#7F4E1B" stroke="#7F4E1B" stroke-width="0.3" d="M401.06,697.22c11.15-1.27,21.39,4.5,30.55,10.1201
		c9.59,6.16,18.4,13.49,26.63,21.36c5.44,5.7,11.33,11.27,14.73,18.5c-2.78-1.09-4.45-3.83-7-5.32
		c-20.51-14.83-43.48-26.06-67.13-34.94C399.52,703.68,400.22,700.44,401.06,697.22z"/>
	<path fill="#945E32" stroke="#945E32" stroke-width="0.3" d="M565,710.88c1.98-0.76,4.02-0.23,5.95,0.43
		c-0.44,2.17-2.32,3.45-4.09,4.54c-5.44,3.22-11.22,5.88-17.25,7.82c-12.01,4.6-23.51,10.4-35.28,15.56
		c-3.48,1.5-7.06,2.79-10.37,4.66c-0.05-0.62-0.16-1.88-0.21-2.5c5.32-4.97,10.76-9.91,17.18-13.45
		C534.67,720.11,549.73,714.83,565,710.88z"/>
	<path fill="#EDDDC4" stroke="#EDDDC4" stroke-width="0.3" d="M40.75,712.21c1.54,0.61,3.08,1.25,4.61,1.91
		c-1.8,2.58-4.01,4.83-6.28,7c0.27-2.46,0.6-4.89,1.04-7.31C40.28,713.41,40.59,712.61,40.75,712.21z"/>
	<path fill="#7F4E1B" stroke="#7F4E1B" stroke-width="0.3" d="M395.74,735.3c15.91,12.23,35.83,16.96,53.81,25.16
		c3.69,2.0099,8.03,3.75,10.18,7.6c1.37,2.91-2.35,4.71-4.75,4.7c-5.43-0.63-10.97-1.26-16.02-3.5
		c-13.16-5.27-26.93-10.95-36.6-21.72C399.32,744,396.91,739.84,395.74,735.3z"/>
	<path fill="#945E32" stroke="#945E32" stroke-width="0.3" d="M536.82,768.77c16.15-8.55,31.23-18.97,47.24-27.75
		c4.82-0.8,10.29-1.17,14.78,1.12c-2.35,5.64-6.04,11.33-11.98,13.61c-6.38,2.33-13.39,1.39-19.88,3.27
		c-5.87,1.44-10.87,4.98-16.12,7.81c-5.07,2.79-10.08,6.8-16.19,6.45C534.81,771.59,534.97,769.46,536.82,768.77z"/>
	<path fill="#88765D" stroke="#88765D" stroke-width="0.3" d="M503.96,745.07c2.47-1.5,2.81,3.07,0.18,1.91
		C504.1,746.5,504.01,745.55,503.96,745.07z"/>
	<path fill="#EDDDC4" stroke="#EDDDC4" stroke-width="0.3" d="M28.57,749.26c3.45,0.43,7.38-0.19,10.37,1.94
		c1.27,2.03-0.46,4.09-1.09,6.03c2.45,1.87,4.99,3.63,7.33,5.65c-0.12,1.91,0.33,3.96-0.38,5.79c-2.05,2.18-4.23,4.32-5.24,7.23
		c0.75,1.18,1.5,2.37,2.24,3.5699c-0.09,0.3-0.28,0.91-0.37,1.21c-8.85,7.2-20.94,5.29-31.16,8.85c7.67-6.8,15.5-13.53,24.21-18.98
		c2.11-1.31,5.04-3.7,3.4-6.46C34.91,759.06,30.8,754.72,28.57,749.26z"/>
	<path fill="#AF7C5B" stroke="#AF7C5B" stroke-width="0.3" d="M378.27,770.26c13.01,4.25,21.42,16.48,34.14,21.29
		c7.33,1.33,14.92-0.95,22.21,0.89c1.68,0.62,4.18,1.43,4.27,3.57c0.33,2.55-2.42,4.04-4.55,4.44c-3.89,0.42-7.74-0.68-11.59-0.99
		c-5.94-0.5-12.19,0.09-17.76-2.44c-7.77-3.52-15.4-7.55-22.13-12.84c-2.87-2.43-6.11-5.15-6.81-9.05
		C375.56,773.16,377.24,771.68,378.27,770.26z"/>
	<path opacity="0.92" fill="#C7B79E" stroke="#C7B79E" stroke-width="0.3" enable-background="new    " d="M59.34,789.09
		c1.78,0.4-0.26,2.77-1.43,2.74c0.01-0.52,0.04-1.55,0.05-2.06C58.31,789.6,58.99,789.26,59.34,789.09z"/>
	<path fill="#9A8868" stroke="#9A8868" stroke-width="0.3" d="M1075.9,842.78c3.84-0.59,6.53-3.72,9.2999-6.15
		c3.4301,3.25,7.37,5.89,11.75,7.71c-2.62,3.7599-4.2799,8.49-2.4399,12.98c2.9399,7.91,3.62,16.35,4.55,24.67
		c0.7,8.14,3.1599,15.97,4.58,23.99c-0.54,2.07-1.34,4.07-2.36,5.96c-3.0601,2.32-6.51,4.05-10.0701,5.46
		c1.3301,5.46,1.89,11.62-1.1,16.66c-1.89,3.31-5.24,5.32-8.54,6.99c3.3101,2.43,7.5801,5.88,5.9701,10.57
		c-3.0601,7.2-10.41,11.09-16.48,15.44c0.3899,1.76,0.3199,3.79,1.7,5.17c4.9399,5.44,8.6799,11.8,12.35,18.13
		c-10.52-4.86-21.76-7.82-33.14-9.8c1.3401,2.3,3.48,4.64,2.97,7.54c-0.87,4.37-4.58,7.39-8.1,9.73
		c-8.0699,4.97-17.13,8.03-26.27,10.34c2.58,2.25,6.16,2.04,9.3699,2.01c-2.2799,3.64-2.47,7.96-1.2599,12.02
		c2.4299-0.23,4.85-0.6,7.3099-0.63c2.35,0,4.63,1.98,4.72,4.4c-0.4099,3.38-3,6.23-6.0399,7.5701
		c-3.8,1.1599-7.78,1.45-11.6801,2.0699c4.87,0.85,9.8201,0.2001,14.74,0.22c-3.13,2.91-6.4199,5.9801-10.6799,7.03
		c-8.4401,2.1901-16.96,4.3-25.71,4.59c4.25,3.1901,10,3.42,14.93,5.2101c1.84,0.6899,4.44,1.1899,5.07,3.38
		c-0.22,3.1499-3.1801,5.0599-4.88,7.47c-2.11,2.46-4.09,5.55-7.51,6.23c-7.24,1.8201-14.77,1.3-22.16,1.49
		c4.55,3.74,9.96,6.17,15.54,7.9501c-9.42,4.37-19.09,8.5499-29.48,9.8899c0.12,3.42,3.21,8.8501-1.3199,10.4901
		c-7.14,3.1899-14.84,4.86-22.27,7.2c2.62,2.5699,6.08,5.21,6.19,9.23c-0.49,2.59-2.62,4.41-4.74,5.75
		c-9.55,5.53-20.36,8.1801-31,10.72c6.43,2.75,12.7,5.98,19.49,7.8101c-11.67,4.74-22.55,11.26-34.44,15.49
		c-5.15,2.22-11.13-2.21-15.94,1.11c-4.84,5.01-4.07,12.62-4.65,19.03c-1.08,0.59-2.15,1.2-3.21,1.83
		c-1.69-1.16-3.28-2.4299-4.76-3.8199c-2.81,4.37-5.09,9.0499-7.89,13.4299c-1.18,1.63-2.24,3.76-4.33,4.3401
		c-3.06-0.4501-5.15-3.2101-7.98-4.29c-3.55,0.95-7.5,2.99-8.87,6.64c-0.95,5.35,2.45,10.12,3.53,15.2
		c-8.33-3.99-7.17-15.45-14.71-20.1899c-3.63-2.05-8-1.49-11.95-2.37c-5.79-1.3301-8.47-7.4-12.81-10.92
		c-0.04-2.62-0.03-5.23,0.01-7.84c3.93-0.53,7.76,0.7,11.66,0.9299c1.96-0.6799,1.83-3.0499,2.4-4.6699
		c4.95,4.64,9.96,9.98,16.74,11.75c7.07,1.24,11.86-5.3,16.18-9.78c2.36-3.33,6.79-2.09,10.25-2.15c0.76-6.6-2.72-13.11-0.92-19.63
		c1.43-5.2,7.32-7.22,9.01-12.28c1.16,0.24,2.32,0.4801,3.51,0.74c4.75-12.2,1.2599-25.84-4.83-36.8999
		c-4.34-8.8501-10.8-16.39-16.18-24.54c6.66,1.99,12.94,5.63,17.09,11.34c2.3,0.0901,4.61,0.1801,6.93,0.26
		c-0.42-2.2999-1.15-4.53-1.56-6.8099c1.77-2.03,4.91-2.6801,6.42-5.11c4.08-5.6101,3.27-13.03,2.17-19.4601
		c6.69-0.14,14.53,4.62,20.33-0.59c-1.9301-3.76-3.87-7.64-3.39-12.01c2.53-3.09,7.04-2.45,10.57-3.11
		c-1.5-5.84-2.54-11.79-3.86-17.66c-2.89-7.54-10.58-10.93-16.77-15.21c-2.58-1.39-0.63-4.59-0.45-6.76
		c8,0.88,15.71,3.29,23.65,4.48c6.75,1.02,13.42-1.36,19.24-4.59c0.33-4.8-1.18-10.03,1.24-14.45c3.24-6.84,4.76-14.56,9.46-20.65
		c4.06-5.33,11.72-7.78,18.02-5.19c2.69,0.92,6.32,2.34,8.58-0.25c2.71-3.57,1.86-8.42,2.16-12.61c9.15,0.88,18.33,1.34,27.5,2.07
		c-0.45-4.1-2.19-7.98-2.09-12.13c0-5.15-0.9-10.23-1.78-15.27c4.17,3.46,7.34,8.39,12.59,10.38c2.55,0.98,4.78-1.33,5.41-3.62
		c2.23-7.01-2.66-13.99-0.91-21.04c1.12-4.38,5.44-6.69,8.9901-8.91c9.23-5.04,19.2-8.52,28.9099-12.49
		c-2.72-2.4-6.63-3.68-8.35-7.04c-0.63-3.71,2.49-6.57,4.6901-9.13c4.0399-4.74,9.6699-7.64,14.1399-11.87
		c3.7201-3.74,1.4501-9.28-0.33-13.37C1070.34,841.39,1072.99,842.84,1075.9,842.78z"/>
	<path fill="#EABAA3" stroke="#EABAA3" stroke-width="0.3" d="M651.39,1165.3101c2.93-1.76,6.44-1.14,9.65-0.7201
		c20.76,2.99,36.71,19.64,57.71,21.85c-0.96,6.54-2.44,12.9901-3.53,19.52c-8.43,3.11-16.64,6.74-24.83,10.42
		c-9.81,4.5-20.83,5.14-31.45,4.61c-7.88-0.49-14.49-6.3-17.71-13.25c-3.16-5.95-4-12.84-7.25-18.72c-0.86-1.72-3.06-1.01-4.41-0.41
		c-4.13,2.14-6.34,6.48-9.71,9.52c2.01-5.4,4.39-10.66,6.08-16.17c0.78-2.02,1.12-4.6499,3.39-5.5599
		C636.64,1172.63,644.08,1169.1,651.39,1165.3101z"/>
	<path fill="#EFC5B1" stroke="#EFC5B1" stroke-width="0.3" d="M629.57,1188.61c1.35-0.6,3.55-1.3099,4.41,0.41
		c3.25,5.88,4.09,12.77,7.25,18.72c3.22,6.95,9.83,12.76,17.71,13.25c10.62,0.53,21.64-0.11,31.45-4.61
		c8.19-3.6801,16.4-7.3101,24.83-10.42c-0.61,4.37-1.55,8.6801-2.3,13.03c-1.83,10.13-2.48,20.5-5.58,30.37
		c-1.65,7.1901-7.45,12.3101-13.14,16.5c-6.56,4.78-13.86,8.7001-21.64,11.02c-1.41-3.61-5.84-3.58-8.27-6.13
		c-5.72-5.62-11.15-11.9-18.41-15.58c-8.45-3.05-17.05-5.66-25.55-8.54c-11.48-3.49-23.22-7.1901-35.35-6.8199
		c-5.89-0.01-11.79-0.04-17.65,0.61c-4.24,0.37-8.51,1.24-12.77,0.5699c5.91-2.78,12.16-4.74,18.09-7.47
		c11.13-4.99,21.71-11.15,31.91-17.8201c6.76-4.2,10.95-11.1499,15.3-17.5699C623.23,1195.09,625.44,1190.75,629.57,1188.61z"/>
	<path fill="#D09C83" stroke="#D09C83" stroke-width="0.3" d="M363.35,1218.1899c8.91,0.05,16.9,4.53,24.18,9.2201
		c10.08,6.5699,20.14,13.6599,31.82,17.09c6.39,1.7,12.84,3.89,17.94,8.26c2.26,2.36,5.09,5.5699,3.48,9.0699
		c-2.1,4.14-4.87,8.4601-9.22,10.5c-3.81,1.74-7.9,0.0801-11.66-0.85c-6.13-1.9-12.44-3.36-18.87-3.6
		c-25.36-0.3-50.65-2.4401-75.99-3.39c-14.7-0.45-29.56-1.7-44.13,0.9401c-4.23,0.63-8.49,1.85-12.8,1.1899
		c-3.71-0.65-6.51-3.47-8.58-6.4301c2.14-4,3.61-9.2999,8.11-11.2c0.04-1.17,0.07-2.3199,0.11-3.45c3.31-1.49,3.83-5.16,4.3-8.3401
		c-2.25-0.3999-4.5-0.76-6.75-1.11c0.22-1.38,0.14-3.3199,1.84-3.71c8.21-2.84,16.58,2.74,24.91,0.67
		c5.17-1.5601,9.52-5.24,14.91-6.16c12.97,0.46,25.88,4.6799,38.91,2.62c5.13-0.58,9.11-4.1901,12.86-7.41
		C360.23,1220.76,361.77,1219.4399,363.35,1218.1899z"/>
	<path fill="#EBCEB6" stroke="#EBCEB6" stroke-width="0.3" d="M238.25,1240.77c3.75-1.88,7.53-3.92,11.67-4.75
		c5.09-0.72,10.3-0.85,15.37,0.0699c2.25,0.35,4.5,0.7101,6.75,1.11c-0.47,3.1801-0.99,6.8501-4.3,8.3401
		c-3.74-1.1801-7.67-2.11-10.93-4.37c-1.2-0.6901-2.3-1.91-3.8-1.67C248.07,1239.58,243.21,1240.74,238.25,1240.77z"/>
	<path fill="#EABAA3" stroke="#EABAA3" stroke-width="0.3" d="M498.99,1244.91c6.58-4.8201,15.06-5.86,23-5.7101
		c7.47-0.0299,14.59,2.6801,22,3.14c3.58,0.2001,7.09-0.6599,10.57-1.35c4.26,0.67,8.53-0.2,12.77-0.5699
		c5.86-0.65,11.76-0.62,17.65-0.61c12.13-0.3701,23.87,3.33,35.35,6.8199c8.5,2.88,17.1,5.49,25.55,8.54
		c7.26,3.6799,12.69,9.96,18.41,15.58c2.43,2.55,6.86,2.52,8.27,6.13c-4.42,1.3-9.02,1.96-13.62,1.83
		c-16.09-0.1799-32.19-0.11-48.27-0.51c0.55-4.96,2.81-9.4399,4.32-14.12c-3.61,2.63-6.54,6.7201-11.15,7.5701
		c-3.48,0.5699-4.98-3.13-6.29-5.6c-1.44,2.62-2.33,5.8199-4.97,7.5299c-2.98,1.9-6.24,3.4601-9.74,4.1001
		c-10.95-0.2101-21.9,0.0499-32.84,0.23c-0.36-0.26-1.08-0.78-1.44-1.04c1.97-3.6,1.29-7.88-0.42-11.4301
		c-2.42,3.14-4.05,7.0701-7.48,9.3101c-1.95,1.33-4.41,1.04-6.64,1.17c-3.73-4.4401-0.87-9.9701,1.28-14.37
		c-3.27,2-4.92,5.76-5.68,9.3899c-0.44,2.02-0.23,4.53,1.51,5.92c3.38,1.04,7.22-0.36,10.36,1.58
		c-10.95,0.02-21.87,0.7001-32.8,1.5601h-9.29c-4.3-0.49-9.26-0.66-12.39-4.0699c-2.74-3.8601-0.57-8.76,0.26-12.91
		c0.38-0.98,0.79-1.9401,1.24-2.86c4.03-0.03,8.04,1.1899,12.06,0.4199c0.82-1.99,0.18-4.3199-1.83-5.26
		c-2.72-0.4199-5.47-0.5599-8.2-0.7699C492.67,1250.8101,495.43,1247.38,498.99,1244.91 M509.02,1259.47
		c3.72,3.24,9.31,1.47,13.82,1.25c0.4-2.23-2.16-3.12-3.86-3.5499C515.5,1256.91,512.21,1258.3,509.02,1259.47 M559.03,1276.9399
		c4.66-0.11,9.3799-0.61,14.05-1.0299c-1.55-1.17-3.43-1.8301-4.88-3.0801c-1.01-1.47-1.71-3.12-2.52-4.6699
		C563.45,1271.0699,561.56,1274.24,559.03,1276.9399z"/>
	<path fill="#EBCEB6" stroke="#EBCEB6" stroke-width="0.3" d="M477.03,1259.49c2.95-4.63,8.63-4.66,13.51-4.9399
		c2.73,0.21,5.48,0.35,8.2,0.7699c2.01,0.9401,2.65,3.27,1.83,5.26c-4.02,0.77-8.03-0.45-12.06-0.4199
		c-0.45,0.9199-0.86,1.88-1.24,2.86c0.15-0.54,0.43-1.63,0.58-2.17c-2.55-0.1-5.12-0.24-7.63,0.3
		C479.15,1260.58,478.08,1260.03,477.03,1259.49z"/>
	<path fill="#EBCEB6" stroke="#EBCEB6" stroke-width="0.3" d="M509.02,1259.47c3.19-1.1699,6.48-2.5599,9.96-2.2999
		c1.7,0.4299,4.26,1.3199,3.86,3.5499C518.33,1260.9399,512.74,1262.71,509.02,1259.47z"/>
	<path fill="#D6A58D" stroke="#D6A58D" stroke-width="0.3" d="M529.62,1270.9399c0.76-3.6299,2.41-7.3899,5.68-9.3899
		c-2.15,4.3999-5.01,9.9299-1.28,14.37c2.23-0.13,4.69,0.1599,6.64-1.17c3.4301-2.24,5.06-6.17,7.48-9.3101
		c1.71,3.55,2.39,7.8301,0.42,11.4301c0.36,0.26,1.08,0.78,1.44,1.04c-2.85,0.1-5.68,0.34-8.51,0.5299
		c-3.14-1.9399-6.98-0.5399-10.36-1.58C529.39,1275.47,529.18,1272.96,529.62,1270.9399z"/>
	<path fill="#D3A690" stroke="#D3A690" stroke-width="0.3" d="M603.84,1271.65c4.61-0.85,7.54-4.9401,11.15-7.5701
		c-1.51,4.6801-3.77,9.16-4.32,14.12c-9.28-0.2899-18.55-0.2999-27.83-0.5199c3.5-0.64,6.7599-2.2001,9.74-4.1001
		c2.64-1.71,3.53-4.9099,4.97-7.5299C598.86,1268.52,600.36,1272.22,603.84,1271.65z"/>
	<path fill="#D3A690" stroke="#D3A690" stroke-width="0.3" d="M559.03,1276.9399c2.53-2.7,4.42-5.87,6.65-8.7799
		c0.81,1.5499,1.51,3.2,2.52,4.6699c1.45,1.25,3.33,1.91,4.88,3.0801C568.41,1276.33,563.69,1276.83,559.03,1276.9399z"/>
	<path fill="#FEF0D5" stroke="#FEF0D5" stroke-width="0.3" d="M856.58,1269.25c2.03-0.85,4.2-1.3,6.42-1.1801
		c9.33,0.12,18.65-0.08,27.98,0.1001c3.15,0.08,6.44-0.26,9.42,1.0699C885.79,1269.34,871.18,1269.53,856.58,1269.25z"/>
</g>
</svg>
